<svg width="43" height="43" viewBox="0 0 43 43" fill="none" xmlns="http://www.w3.org/2000/svg">
<g clip-path="url(#clip0_2_387)">
<path d="M21.2169 32.9564C18.9518 32.9564 17.1155 31.1202 17.1155 28.8551C17.1155 26.5901 18.9518 24.7539 21.2169 24.7539C23.482 24.7539 25.3183 26.5901 25.3183 28.8551C25.3183 31.1202 23.482 32.9564 21.2169 32.9564Z" fill="#5D295C"/>
<path d="M1.48994 0.428711H41.0274C41.7069 0.428711 42.2578 0.979528 42.2578 1.65905V31.1876C42.2578 31.8671 41.7069 32.418 41.0274 32.418H26.7224C29.543 28.0786 26.4141 22.2906 21.2177 22.2906C16.0212 22.2906 12.8923 28.0785 15.7129 32.418H1.48994C0.810421 32.418 0.259521 31.8671 0.259521 31.1876V1.65905C0.259521 0.979528 0.810421 0.428711 1.48994 0.428711V0.428711ZM26.1803 5.43217H16.337C15.6575 5.43217 15.1066 5.98299 15.1066 6.6625C15.1066 7.34202 15.6575 7.89284 16.337 7.89284H26.1803C26.8599 7.89284 27.4108 7.34202 27.4108 6.6625C27.4108 5.98299 26.8599 5.43217 26.1803 5.43217ZM8.95448 20.1965H33.5629C34.2424 20.1965 34.7933 19.6456 34.7933 18.9661C34.7933 18.2866 34.2424 17.7358 33.5629 17.7358H8.95448C8.27496 17.7358 7.72406 18.2866 7.72406 18.9661C7.72406 19.6456 8.27496 20.1965 8.95448 20.1965ZM8.95448 15.275H33.5629C34.2424 15.275 34.7933 14.7242 34.7933 14.0447C34.7933 13.3652 34.2424 12.8144 33.5629 12.8144H8.95448C8.27496 12.8144 7.72406 13.3652 7.72406 14.0447C7.72406 14.7242 8.27496 15.275 8.95448 15.275Z" fill="#5D295C"/>
<path d="M26.1168 33.2111V41.1961C26.1168 42.1717 25.0275 42.7658 24.2066 42.2216L21.1746 40.2115L18.1426 42.2216C17.3342 42.7575 16.2323 42.1832 16.2323 41.1961V33.1165C18.8245 36.1424 23.4652 36.1905 26.1168 33.2111Z" fill="#5D295C"/>
</g>
<defs>
<clipPath id="clip0_2_387">
<rect width="41.9983" height="41.9983" fill="white" transform="matrix(-1 0 0 1 42.2578 0.428711)"/>
</clipPath>
</defs>
</svg>
