<svg width="14" height="15" viewBox="0 0 14 15" fill="none" xmlns="http://www.w3.org/2000/svg">
<path d="M9.30999 7.50047L13.6411 2.86002C14.1196 2.3473 14.1196 1.51605 13.6411 1.00413L13.0637 0.385502C12.585 -0.127379 11.8092 -0.127379 11.3314 0.385502L7.00044 5.02579L2.66935 0.384541C2.19081 -0.12818 1.41498 -0.12818 0.93719 0.384541L0.358905 1.00317C-0.119635 1.51605 -0.119635 2.3473 0.358905 2.85922L4.69073 7.50047L0.359802 12.1408C-0.118887 12.6536 -0.118887 13.4849 0.359802 13.9968L0.93719 14.6154C1.41573 15.1282 2.19156 15.1282 2.66935 14.6154L7.00044 9.97499L11.3314 14.6154C11.8101 15.1282 12.5859 15.1282 13.0637 14.6154L13.6411 13.9968C14.1196 13.4839 14.1196 12.6527 13.6411 12.1408L9.30999 7.50047Z" fill="#E53C3C"/>
</svg>
