<svg width="43" height="43" viewBox="0 0 43 43" fill="none" xmlns="http://www.w3.org/2000/svg">
<g clip-path="url(#clip0_2_376)">
<path d="M27.3284 12.7093C25.7453 12.7093 24.4574 11.4214 24.4574 9.83836V0.405151H9.77441C7.28675 0.405151 5.26288 2.42903 5.26288 4.91669V37.8919C5.26288 40.3796 7.28675 42.4034 9.77441 42.4034H32.7422C35.2299 42.4034 37.2538 40.3796 37.2538 37.8919V12.7093H27.3284ZM11.9892 29.9352H17.9542C18.6338 29.9352 19.1847 30.4861 19.1847 31.1656C19.1847 31.8451 18.6338 32.396 17.9542 32.396H11.9892C11.3096 32.396 10.7587 31.8451 10.7587 31.1656C10.7587 30.4861 11.3096 29.9352 11.9892 29.9352ZM10.7587 24.6034C10.7587 23.9239 11.3096 23.373 11.9892 23.373H30.0353C30.7148 23.373 31.2657 23.9239 31.2657 24.6034C31.2657 25.2829 30.7148 25.8338 30.0353 25.8338H11.9892C11.3096 25.8338 10.7587 25.2829 10.7587 24.6034ZM30.0353 16.8107C30.7148 16.8107 31.2657 17.3616 31.2657 18.0412C31.2657 18.7207 30.7148 19.2716 30.0353 19.2716H11.9892C11.3096 19.2716 10.7587 18.7207 10.7587 18.0412C10.7587 17.3616 11.3096 16.8107 11.9892 16.8107H30.0353Z" fill="#5D295C"/>
<path d="M26.9191 9.83869C26.9191 10.0648 27.1031 10.2488 27.3292 10.2488H36.7061C36.4811 9.83327 36.1915 9.4516 35.8436 9.12242L27.9342 1.63967C27.6273 1.34929 27.2854 1.10706 26.9191 0.915771V9.83869H26.9191Z" fill="#5D295C"/>
</g>
<defs>
<clipPath id="clip0_2_376">
<rect width="41.9983" height="41.9983" fill="white" transform="translate(0.257812 0.405273)"/>
</clipPath>
</defs>
</svg>
