<svg width="43" height="43" viewBox="0 0 43 43" fill="none" xmlns="http://www.w3.org/2000/svg">
<g clip-path="url(#clip0_2_341)">
<path d="M36.1919 5.23364H34.964V35.3996C34.964 37.4036 33.3327 39.0349 31.3287 39.0349H18.8878H8.99475V40.1531C8.99475 41.4336 10.034 42.4729 11.3145 42.4729H23.751H36.1875C37.468 42.4729 38.5072 41.4336 38.5072 40.1531V7.55342C38.5073 6.27294 37.4724 5.23364 36.1919 5.23364Z" fill="#5E295C"/>
<path d="M18.8876 37.7195H31.3241C32.6046 37.7195 33.6439 36.6803 33.6439 35.3998V5.23386V2.80007C33.6439 1.51958 32.6046 0.480286 31.3241 0.480286H18.8876H14.7524V1.2477C14.7611 1.32663 14.7655 1.40995 14.7655 1.49327V6.54943V7.84745C14.7655 9.64978 13.3008 11.1144 11.4985 11.1144H10.2005H5.14434C5.07856 11.1144 5.0084 11.1101 4.94262 11.1057H4.13574V35.3998C4.13574 36.6803 5.17504 37.7195 6.45552 37.7195H8.99895H18.8876ZM19.3568 29.8349H11.2486C10.6434 29.8349 10.1523 29.3438 10.1523 28.7386C10.1523 28.1334 10.6434 27.6423 11.2486 27.6423H19.3612C19.9664 27.6423 20.4575 28.1334 20.4575 28.7386C20.4575 29.3438 19.962 29.8349 19.3568 29.8349ZM27.4695 24.2394H11.2486C10.6434 24.2394 10.1523 23.7483 10.1523 23.1431C10.1523 22.5379 10.6434 22.0468 11.2486 22.0468H27.4695C28.0746 22.0468 28.5658 22.5379 28.5658 23.1431C28.5658 23.7483 28.0746 24.2394 27.4695 24.2394ZM11.2486 16.1048H27.4695C28.0746 16.1048 28.5658 16.596 28.5658 17.2011C28.5658 17.8063 28.0746 18.2974 27.4695 18.2974H11.2486C10.6434 18.2974 10.1523 17.8063 10.1523 17.2011C10.1523 16.596 10.6434 16.1048 11.2486 16.1048Z" fill="#5E295C"/>
<path d="M5.14391 9.79889H11.4981C11.5025 9.79889 11.5112 9.79889 11.5156 9.79889C12.5768 9.79012 13.4363 8.93062 13.4451 7.86939C13.4451 7.86501 13.4451 7.85624 13.4451 7.85185V1.49328C13.4451 0.905665 12.9627 0.515381 12.4629 0.515381C12.2217 0.515381 11.9805 0.603085 11.7788 0.804805L4.45104 8.13251C3.83711 8.74644 4.27125 9.79889 5.14391 9.79889Z" fill="#5E295C"/>
</g>
<defs>
<clipPath id="clip0_2_341">
<rect width="41.9928" height="41.9929" fill="white" transform="translate(0.324219 0.480469)"/>
</clipPath>
</defs>
</svg>
