<svg width="43" height="43" viewBox="0 0 43 43" fill="none" xmlns="http://www.w3.org/2000/svg">
<g clip-path="url(#clip0_2_392)">
<path d="M34.635 4.98842C34.8827 5.32225 35.2879 5.53633 35.7308 5.53633C36.435 5.53633 37.0062 6.10737 37.0062 6.81177C37.0062 7.51741 37.5503 8.12667 38.2554 8.15939C39.0061 8.19433 39.6309 7.59771 39.6309 6.84868C39.6309 6.05988 40.2364 5.53633 40.9064 5.53633C41.612 5.53633 42.2213 4.99228 42.254 4.28714C42.2874 3.57486 41.743 2.91163 40.9064 2.91163C40.2018 2.91163 39.6309 2.34075 39.6309 1.63619C39.6309 1.28267 39.4948 0.954583 39.2709 0.710157C38.4693 -0.164771 37.0062 0.409218 37.0062 1.59928C37.0062 2.32542 36.419 2.91163 35.6939 2.91163C34.6036 2.91154 34.0126 4.155 34.635 4.98842Z" fill="#5D295C"/>
<path d="M7.44054 28.5035C6.73622 28.5035 6.16526 27.9326 6.16526 27.2282C6.16526 26.5216 5.62219 25.9136 4.91639 25.8803C4.16278 25.8448 3.54056 26.4453 3.54056 27.1912C3.54056 27.9784 2.93606 28.5035 2.26528 28.5035C1.55866 28.5035 0.950632 29.0466 0.917331 29.7524C0.881815 30.506 1.48238 31.1282 2.22821 31.1282C3.01545 31.1282 3.54056 31.7327 3.54056 32.4035C3.54056 33.1101 4.08363 33.7181 4.78942 33.7514C5.54304 33.787 6.16526 33.1864 6.16526 32.4406C6.16526 31.7158 6.75278 31.1282 7.47761 31.1282C8.22344 31.1282 8.824 30.5061 8.78849 29.7524C8.75527 29.0466 8.14724 28.5035 7.44054 28.5035Z" fill="#5D295C"/>
<path d="M18.7303 6.19639C18.9081 6.08411 18.972 5.85412 18.8767 5.66678C17.3632 2.69307 14.3557 0.510795 10.6089 0.300244C6.25683 0.0440075 2.04591 2.85129 0.702305 7.2065C-1.2467 13.5411 3.48867 19.9724 10.102 19.9724C10.1537 19.9724 10.2704 19.9702 10.3923 19.9669C10.6037 19.9612 10.7769 19.7955 10.7898 19.5844C11.1335 13.9704 14.1995 9.0583 18.7303 6.19639ZM10.102 6.84888C8.29262 6.84888 6.82115 8.32035 6.82115 10.1298C6.82115 10.8548 6.23387 11.4421 5.50879 11.4421C4.78372 11.4421 4.19644 10.8548 4.19644 10.1298C4.19644 6.87349 6.84575 4.22418 10.102 4.22418C10.8271 4.22418 11.4144 4.81145 11.4144 5.53653C11.4144 6.2616 10.8271 6.84888 10.102 6.84888Z" fill="#5D295C"/>
<path d="M18.6316 27.8474C14.6488 27.8474 11.4136 31.0751 11.4136 35.0653C11.4136 39.0516 14.6453 42.2833 18.6316 42.2833C21.7074 42.2833 24.3337 40.3599 25.373 37.6499C27.1704 32.9782 23.7329 27.8474 18.6316 27.8474ZM19.6905 32.5612C19.451 32.886 19.0663 33.0968 18.6316 33.0968C17.549 33.0968 16.663 33.9783 16.663 35.0653C16.663 35.7904 16.0758 36.3777 15.3507 36.3777C14.6256 36.3777 14.0383 35.7904 14.0383 35.0653C14.0383 32.5394 16.0924 30.4721 18.6316 30.4721C19.7156 30.4721 20.3169 31.7056 19.6905 32.5612Z" fill="#5D295C"/>
<path d="M28.4704 34.6418C28.4862 34.8689 28.6839 35.0407 28.9109 35.0237C36.4955 34.4569 42.3755 28.0303 42.2536 20.4765C42.2536 12.816 35.9045 6.19324 27.8185 6.19324C17.6059 6.19324 10.7716 16.4653 14.3135 25.7394C14.3957 25.9546 14.6408 26.0609 14.853 25.9713C15.9404 25.5121 17.2635 25.2223 18.6321 25.2223C23.8645 25.2223 28.1455 29.2998 28.4556 34.4641C28.4556 34.4642 28.4632 34.5372 28.4704 34.6418ZM26.5062 12.755C22.1647 12.755 18.6321 16.2877 18.6321 20.6291C18.6321 21.3542 18.0448 21.9415 17.3197 21.9415C16.5946 21.9415 16.0074 21.3542 16.0074 20.6291C16.0074 14.8646 20.6912 10.1303 26.5062 10.1303C27.2312 10.1303 27.8185 10.7176 27.8185 11.4426C27.8185 12.1677 27.2312 12.755 26.5062 12.755Z" fill="#5D295C"/>
</g>
<defs>
<clipPath id="clip0_2_392">
<rect width="41.9983" height="41.9983" fill="white" transform="translate(0.258789 0.28418)"/>
</clipPath>
</defs>
</svg>
