<svg width="43" height="43" viewBox="0 0 43 43" fill="none" xmlns="http://www.w3.org/2000/svg">
<g clip-path="url(#clip0_2_399)">
<path d="M38.2493 4.34227C35.6835 1.77687 32.2725 0.364014 28.6445 0.364014C25.0164 0.364014 21.6053 1.77687 19.0401 4.34227C16.4742 6.90782 15.0612 10.319 15.0612 13.9472C15.0612 15.8125 15.4373 17.6194 16.1488 19.2844L1.18295 34.2503C0.911126 34.5218 0.743681 34.8804 0.709643 35.2628L0.235925 40.5792C0.192691 41.0625 0.3659 41.5398 0.708888 41.8827C1.05188 42.2257 1.52903 42.3989 2.01242 42.3558L7.32907 41.8822C7.71145 41.848 8.06974 41.6807 8.34156 41.4086L9.95363 39.7964C9.94265 39.7517 9.93476 39.7058 9.93147 39.6584L9.66719 35.8057C9.65162 35.5774 9.73541 35.3534 9.89729 35.1915C10.059 35.0298 10.2815 34.9472 10.5112 34.9614L14.3643 35.2255C14.4117 35.2286 14.4578 35.2366 14.5024 35.2478L15.7677 33.9825C15.7566 33.9378 15.7487 33.8917 15.7454 33.8442L15.4812 29.9915C15.4656 29.7632 15.5495 29.5392 15.7113 29.3774C15.873 29.2155 16.0966 29.1321 16.3254 29.1473L20.1784 29.4115C20.2256 29.4146 20.2719 29.4227 20.3166 29.4338L23.3082 26.4421C24.9732 27.1536 26.7802 27.5296 28.6452 27.5296C32.2735 27.5296 35.6844 26.1167 38.25 23.5514C43.5456 18.2561 43.5456 9.63875 38.2493 4.34227ZM32.5996 17.9024C31.5433 18.9586 30.1388 19.5403 28.6447 19.5403C27.1507 19.5403 25.7462 18.9586 24.6899 17.9021C23.6334 16.8457 23.0515 15.4411 23.0515 13.9472C23.0515 12.4531 23.6334 11.0486 24.6899 9.99224C25.7459 8.93589 27.1506 8.35423 28.6445 8.35423C30.1386 8.35423 31.5431 8.93596 32.5995 9.99224C34.7803 12.1731 34.7803 15.7218 32.5996 17.9024Z" fill="#5D295C"/>
</g>
<defs>
<clipPath id="clip0_2_399">
<rect width="41.9983" height="41.9983" fill="white" transform="translate(0.224609 0.364258)"/>
</clipPath>
</defs>
</svg>
