<svg width="41" height="41" viewBox="0 0 41 41" fill="none" xmlns="http://www.w3.org/2000/svg">
<g clip-path="url(#clip0_2_335)">
<path d="M12.2905 32.3792C9.29355 30.0616 7.5401 26.4833 7.56885 22.6726C7.57783 21.4719 7.7603 20.301 8.10055 19.1882C8.19069 18.9631 8.29278 18.6824 8.38699 18.3612C9.18209 16.3082 10.5341 14.4906 12.3471 13.1049C12.4482 13.0275 13.2967 12.3695 13.9574 11.5782C14.861 10.4959 15.3428 9.3558 15.351 8.28107C15.359 7.20641 14.8943 6.0591 14.0071 4.96327C13.358 4.16154 12.7088 3.66217 12.6815 3.64131C12.6446 3.61311 12.6049 3.58952 12.5631 3.57101C12.3715 3.48595 12.1474 3.51079 11.9786 3.63584C11.9509 3.65639 11.2936 4.14654 10.6329 4.93797C9.72934 6.0202 9.24754 7.1604 9.23942 8.23506C9.23176 9.26012 9.65513 10.3512 10.464 11.4006C9.53601 12.1559 8.71623 13.0086 8.01244 13.938C7.50097 13.1779 6.68915 12.5253 5.63152 12.0316C5.58176 12.0084 5.53224 11.9859 5.48342 11.9642C4.62935 11.5851 3.93658 11.4393 3.86034 11.4238C3.60663 11.3726 3.34597 11.4973 3.22646 11.7269C3.21053 11.7576 2.8345 12.4859 2.5872 13.4869C2.24905 14.8556 2.31545 16.0916 2.77904 17.0613C3.24216 18.0301 4.16154 18.8574 5.43765 19.4536C5.2337 20.3428 5.11075 21.2575 5.0749 22.1891C4.35682 21.9217 3.52219 21.8122 2.58853 21.8643C1.578 21.9207 0.823047 22.1414 0.740327 22.1663C0.492713 22.2411 0.321961 22.4743 0.325242 22.7331C0.325632 22.7677 0.338599 23.5867 0.594258 24.5862C0.943573 25.952 1.58635 27.0097 2.45332 27.645C2.48706 27.6697 2.52135 27.694 2.55627 27.7177L2.55689 27.7181C2.75061 27.8501 2.96174 27.9669 3.18608 28.0665C3.95939 28.4098 4.88274 28.5542 5.93022 28.4958C6.03012 28.4902 6.12675 28.4827 6.22126 28.4743C6.67462 29.5459 7.25437 30.5612 7.94987 31.498C7.0512 31.777 6.17557 32.3965 5.39375 33.314C4.73785 34.0835 4.37595 34.7829 4.3369 34.8601C4.22036 35.0908 4.27121 35.3753 4.46078 35.5516C4.52398 35.6102 5.10442 36.1401 5.98755 36.6355C6.19955 36.7545 6.41428 36.8624 6.62573 36.9562C7.62962 37.4019 8.6182 37.5557 9.4843 37.4008C10.5422 37.2116 11.5848 36.5444 12.4993 35.4714C13.1552 34.7018 13.517 34.0024 13.5561 33.9253C13.6726 33.6946 13.6218 33.4101 13.4322 33.2338C13.3791 33.1842 12.9544 32.7971 12.2905 32.3792Z" fill="#5E295C"/>
<path d="M39.9025 22.1656C39.8198 22.1406 39.0648 21.92 38.0543 21.8636C37.1206 21.8115 36.286 21.9211 35.5679 22.1884C35.5321 21.2569 35.4091 20.3421 35.2052 19.453C36.4813 18.8567 37.4006 18.0295 37.8638 17.0606C38.3274 16.0909 38.3938 14.8548 38.0556 13.4862C37.8084 12.4852 37.4323 11.7569 37.4163 11.7262C37.2968 11.4967 37.0362 11.372 36.7825 11.4232C36.7062 11.4385 36.0135 11.5844 35.1594 11.9635C35.1106 11.9852 35.061 12.0077 35.0113 12.0309C33.9537 12.5246 33.1418 13.1773 32.6304 13.9373C31.9266 13.008 31.1067 12.1553 30.1788 11.4C30.9877 10.3505 31.411 9.25947 31.4034 8.23441C31.3953 7.15975 30.9134 6.01963 30.0098 4.93732C29.3491 4.14597 28.6918 3.65574 28.6641 3.6352C28.4953 3.51006 28.2713 3.4853 28.0796 3.57036C28.0379 3.58888 27.9982 3.61246 27.9613 3.64066C27.9339 3.66152 27.2847 4.16089 26.6356 4.96262C25.7484 6.05837 25.2837 7.20568 25.2918 8.28042C25.2999 9.35508 25.7818 10.4953 26.6854 11.5775C27.346 12.3689 28.2151 13.0426 28.2957 13.1042C30.1087 14.49 31.4607 16.3076 32.2558 18.3606C32.35 18.6818 32.4521 18.9624 32.5423 19.1875C32.8826 20.3004 33.065 21.4713 33.074 22.6719C33.1027 26.4827 31.3493 30.061 28.3524 32.3786C27.6884 32.7965 27.2637 33.1836 27.2103 33.2332C27.0207 33.4095 26.9698 33.694 27.0864 33.9246C27.1255 34.0018 27.4873 34.7012 28.1433 35.4708C29.0577 36.5438 30.1003 37.2109 31.1582 37.4001C32.0244 37.555 33.0129 37.4012 34.0168 36.9556C34.2282 36.8617 34.443 36.7538 34.6549 36.6349C35.5381 36.1396 36.1185 35.6096 36.1817 35.5509C36.3713 35.3746 36.4222 35.0901 36.3056 34.8595C36.2665 34.7823 35.9047 34.0829 35.2487 33.3133C34.4669 32.3959 33.5913 31.7764 32.6926 31.4974C33.3881 30.5606 33.9679 29.5453 34.4212 28.4736C34.5157 28.482 34.6124 28.4896 34.7123 28.4952C35.7598 28.5536 36.6831 28.4092 37.4564 28.0659C37.6808 27.9663 37.8919 27.8493 38.0856 27.7175L38.0862 27.7171C38.1211 27.6933 38.1554 27.6691 38.1892 27.6444C39.0561 27.0091 39.6989 25.9514 40.0482 24.5855C40.3038 23.5861 40.3169 22.767 40.3173 22.7325C40.3209 22.4736 40.1501 22.2404 39.9025 22.1656Z" fill="#5E295C"/>
<path d="M25.0444 25.2277L28.0666 22.2818C28.3859 21.9705 28.5009 21.5049 28.3631 21.0808C28.2253 20.6566 27.8586 20.3475 27.4173 20.2833L23.2407 19.6764L21.3729 15.8917C21.1755 15.4918 20.7681 15.2386 20.3222 15.2386C19.8762 15.2386 19.4689 15.4919 19.2715 15.8917L17.4037 19.6764L13.2271 20.2833C12.7857 20.3475 12.4191 20.6566 12.2813 21.0808C12.1434 21.5049 12.2584 21.9705 12.5777 22.2818L15.5999 25.2277L14.8865 29.3874C14.8111 29.827 14.9918 30.2712 15.3526 30.5334C15.7134 30.7956 16.1917 30.8301 16.5865 30.6226L20.3222 28.6586L24.0579 30.6226C24.2292 30.7127 24.4165 30.7572 24.603 30.7572C24.8459 30.7572 25.0877 30.6817 25.2918 30.5334C25.6526 30.2712 25.8333 29.827 25.7579 29.3874L25.0444 25.2277Z" fill="#5E295C"/>
</g>
<defs>
<clipPath id="clip0_2_335">
<rect width="39.9932" height="39.9932" fill="white" transform="translate(0.325195 0.494141)"/>
</clipPath>
</defs>
</svg>
