<svg width="39" height="24" viewBox="0 0 39 24" fill="none" xmlns="http://www.w3.org/2000/svg">
<path d="M27.3269 3.72216e-07C24.3142 0.000805691 21.5681 1.14275 19.4984 3.01834C17.4271 1.14516 14.6826 0.00241654 11.6731 0.00241654C11.6481 0.00241654 11.6224 0.00241654 11.5982 0.00241654C5.18948 0.0442931 0 5.25793 0 11.6755C0 18.1189 5.22974 23.3478 11.6723 23.3478C14.6818 23.3478 17.4263 22.2067 19.4968 20.3319C19.0643 19.9413 18.6729 19.5089 18.3033 19.0563H20.7136C20.3504 19.5016 19.9542 19.9188 19.5282 20.3069H19.5266C19.5169 20.3174 19.5064 20.3238 19.4968 20.3327C21.5689 22.2091 24.3166 23.3526 27.3309 23.3518C33.7775 23.3494 39.0016 18.1213 39 11.6755C39 11.6731 39 11.6715 39 11.6699C39.0008 5.22411 33.7735 -0.00161027 27.3269 3.72216e-07ZM18.437 4.2239H20.6556C20.9826 4.62012 21.2862 5.03727 21.5616 5.47376H17.6035C17.8588 5.0566 18.139 4.62737 18.437 4.2239ZM16.9141 6.69945H22.2349C22.4241 7.10372 22.5916 7.52168 22.7382 7.95011H16.2836C16.348 7.82931 16.5735 7.3429 16.9141 6.69945ZM4.76507 14.6488L5.47295 10.1857L3.876 14.6488H3.01995L2.90881 10.1857L2.15262 14.6488H0.953498L1.94726 8.72966H3.76084L3.82446 12.3616L5.04935 8.72966H7.01675L6.03667 14.6488H4.76507ZM9.00508 14.6391L9.04615 14.1664C9.02682 14.1688 8.64832 14.7373 7.77133 14.7373C7.3123 14.7373 6.5714 14.4869 6.5714 13.3981C6.5714 12.0138 7.70046 11.5547 8.77556 11.5547C8.94468 11.5547 9.30949 11.5853 9.30949 11.5853C9.30949 11.5853 9.35056 11.5008 9.35056 11.2721C9.35056 10.896 9.01233 10.8444 8.54927 10.8444C7.73348 10.8444 7.19472 11.0627 7.19472 11.0627L7.37511 9.99159C7.37511 9.99159 8.02903 9.71779 8.88026 9.71779C9.32076 9.71779 10.5875 9.76449 10.5875 11.2165L10.0995 14.6391H9.00508ZM13.63 13.1315C13.63 14.7832 12.0299 14.7124 11.7504 14.7124C10.7075 14.7124 10.3854 14.5682 10.3556 14.5602L10.5215 13.473C10.5231 13.4633 11.045 13.6622 11.6256 13.6622C11.9606 13.6622 12.3955 13.6292 12.3955 13.229C12.3955 12.6298 10.8396 12.7732 10.8396 11.3502C10.8396 10.0947 11.7722 9.72745 12.6918 9.72745C13.4021 9.72745 13.8386 9.82489 13.8386 9.82489L13.6816 10.9217C13.6816 10.9217 13.0075 10.8662 12.8328 10.8662C12.3906 10.8662 12.1499 10.9628 12.1499 11.2721C12.149 11.8938 13.63 11.5893 13.63 13.1315ZM15.5515 13.5648C15.6618 13.5648 15.7867 13.5269 15.872 13.5269L15.7166 14.5827C15.5918 14.6173 15.2382 14.743 14.7849 14.7462C14.2058 14.751 13.7943 14.4273 13.7943 13.6928C13.7943 13.2 14.5006 9.13876 14.528 9.11219H15.7706L15.6441 9.83859H16.2642L16.1056 11.0087H15.4476L15.0981 13.1646C15.0715 13.3361 15.1191 13.5648 15.5515 13.5648ZM18.2848 9.70168C19.649 9.70168 20.0573 10.7003 20.0573 11.5193C20.0573 11.8471 19.893 12.6524 19.893 12.6524H17.3675C17.3675 12.6524 17.134 13.6469 18.4684 13.6469C19.0941 13.6469 19.7883 13.3409 19.7883 13.3409L19.5693 14.5384C19.5693 14.5384 19.1682 14.743 18.2566 14.743C17.2685 14.743 16.1096 14.325 16.1096 12.5694C16.1104 11.0482 17.0349 9.70168 18.2848 9.70168ZM21.5761 17.8539H17.4352C17.1831 17.4513 16.9479 17.0381 16.7458 16.6041H22.2566C22.0537 17.0357 21.8266 17.4529 21.5761 17.8539ZM21.2983 14.6576H20.0227L20.7982 9.8402H21.9554L21.8443 10.5384C21.8443 10.5384 22.2566 9.77899 22.8131 9.77899C22.975 9.77899 23.0531 9.7951 23.0531 9.7951C22.888 10.1317 22.7422 10.4402 22.5908 11.2366C21.7275 10.9306 21.6615 12.6 21.2983 14.6576ZM26.1584 14.5827C26.1584 14.5827 25.49 14.7534 25.0712 14.7534C23.5878 14.7534 22.8348 13.7299 22.8348 12.1796C22.8348 9.84181 24.2304 8.59678 25.6647 8.59678C26.313 8.59678 27.0644 8.90119 27.0644 8.90119L26.8614 10.2179C26.8614 10.2179 26.3533 9.86274 25.7211 9.86274C24.8755 9.86274 24.1169 10.6697 24.1169 12.1362C24.1169 12.8585 24.4704 13.5318 25.3531 13.5318C25.7726 13.5318 26.3806 13.2266 26.3806 13.2266L26.1584 14.5827ZM29.1501 14.6415L29.192 14.1656C29.1719 14.168 28.7934 14.7365 27.9172 14.7365C27.4582 14.7365 26.7173 14.4861 26.7173 13.3973C26.7173 12.0129 27.8463 11.5539 28.9206 11.5539C29.0897 11.5539 29.4554 11.5845 29.4554 11.5845C29.4554 11.5845 29.4972 11.5008 29.4972 11.2721C29.4972 10.896 29.159 10.8444 28.6951 10.8444C27.8793 10.8444 27.3414 11.0627 27.3414 11.0627L27.5218 9.99159C27.5218 9.99159 28.1757 9.71779 29.0277 9.71779C29.4674 9.71779 30.735 9.76449 30.7342 11.2165L30.2462 14.6391C30.2454 14.6415 29.1501 14.6415 29.1501 14.6415ZM31.7328 14.6576H30.4572L31.2327 9.8402H32.3907L32.2796 10.5384C32.2796 10.5384 32.6927 9.77899 33.2492 9.77899C33.4111 9.77899 33.4884 9.7951 33.4884 9.7951C33.3241 10.1317 33.1767 10.4402 33.0261 11.2366C32.162 10.9306 32.096 12.6 31.7328 14.6576ZM35.5412 14.6447L35.5951 14.201C35.5951 14.201 35.1828 14.7212 34.4371 14.7212C33.4038 14.7212 32.8973 13.7234 32.8973 12.7039C32.8973 11.1271 33.846 9.75242 34.9847 9.75242C35.7175 9.75403 36.1854 10.4007 36.1854 10.4007L36.4544 8.73771L37.7002 8.7353L36.7499 14.6447H35.5412V14.6447ZM37.999 14.478C37.966 14.5376 37.9193 14.5835 37.8597 14.619C37.8009 14.652 37.7381 14.6689 37.672 14.6689C37.6076 14.6689 37.5456 14.652 37.486 14.619C37.4264 14.5835 37.3797 14.5376 37.3467 14.478C37.3129 14.4176 37.2967 14.3564 37.2967 14.2912C37.2967 14.2252 37.3137 14.1623 37.3467 14.1028C37.3797 14.0432 37.4288 13.9948 37.4876 13.9626C37.5488 13.9296 37.6092 13.9127 37.672 13.9127C37.7365 13.9127 37.7977 13.9296 37.8572 13.9626C37.9185 13.9956 37.9652 14.0415 37.999 14.1028C38.0336 14.1631 38.0489 14.226 38.0489 14.2912C38.0489 14.3564 38.0328 14.4184 37.999 14.478Z" fill="white"/>
<path d="M37.8991 18.0402C37.8911 18.0346 37.8838 18.0258 37.8709 18.0209C37.858 18.0161 37.8379 18.0137 37.8065 18.0137H37.7308V18.1345H37.8113C37.8492 18.1345 37.8741 18.1313 37.8886 18.1176C37.9023 18.1063 37.9088 18.0926 37.9088 18.0733C37.9088 18.0604 37.9056 18.0515 37.8991 18.0402Z" fill="white"/>
<path d="M38.1609 17.9674C38.1263 17.9046 38.0787 17.8603 38.0183 17.8273C37.9579 17.7943 37.8967 17.7773 37.8339 17.7773C37.7695 17.7773 37.7083 17.7943 37.6487 17.8273C37.5891 17.8603 37.54 17.9062 37.507 17.9674C37.4723 18.027 37.457 18.0898 37.457 18.1542C37.457 18.2187 37.4739 18.2823 37.507 18.3411C37.5416 18.4007 37.5883 18.449 37.6471 18.482C37.7067 18.515 37.7695 18.5319 37.8355 18.5319C37.9 18.5319 37.9628 18.515 38.0216 18.482C38.0803 18.449 38.1279 18.4007 38.1609 18.3411C38.1947 18.2823 38.2108 18.2195 38.2108 18.1542C38.2108 18.089 38.1939 18.0262 38.1609 17.9674ZM37.929 18.3636L37.8935 18.3C37.8653 18.2501 37.842 18.217 37.8243 18.2042C37.813 18.1961 37.7953 18.1897 37.7727 18.1897H37.7349V18.3628H37.6688V17.9561H37.809C37.8573 17.9561 37.8919 17.9602 37.9112 17.9682C37.933 17.9763 37.9515 17.9875 37.9628 18.0077C37.9757 18.0262 37.9813 18.0463 37.9813 18.0673C37.9813 18.0971 37.97 18.122 37.9499 18.1454C37.929 18.1663 37.9 18.18 37.8653 18.1824C37.8798 18.1873 37.8911 18.1953 37.9 18.2042C37.9169 18.2203 37.9362 18.2468 37.9604 18.2839L38.0103 18.3636H37.929V18.3636Z" fill="white"/>
<path d="M8.87621 12.4785C7.96539 12.4785 7.78098 12.8876 7.78098 13.2283C7.78098 13.4038 7.88164 13.697 8.26739 13.697C9.01553 13.697 9.17096 12.7161 9.1468 12.5075C9.11136 12.5003 9.08881 12.4793 8.87621 12.4785Z" fill="white"/>
<path d="M18.2882 10.8145C17.6109 10.8145 17.4805 11.5851 17.4805 11.6665H18.86C18.86 11.6045 18.9896 10.8145 18.2882 10.8145Z" fill="white"/>
<path d="M35.2011 10.9482C34.6543 10.9482 34.2219 11.5828 34.2227 12.5468C34.2227 13.1347 34.432 13.5116 34.8798 13.5116C35.553 13.5116 35.8776 12.633 35.8776 11.9782C35.8776 11.2559 35.6481 10.9482 35.2011 10.9482Z" fill="white"/>
<path d="M37.9409 14.1352C37.9127 14.0853 37.8733 14.0466 37.8234 14.0184C37.7734 13.9903 37.7227 13.9766 37.6695 13.9766C37.618 13.9766 37.5657 13.9911 37.5157 14.0184C37.4658 14.0442 37.4263 14.0845 37.3982 14.1352C37.37 14.1859 37.3555 14.2399 37.3555 14.2922C37.3555 14.3462 37.37 14.3994 37.3965 14.4485C37.4263 14.4984 37.4642 14.5363 37.5141 14.5661C37.564 14.5934 37.6156 14.6095 37.6695 14.6095C37.7235 14.6095 37.7766 14.5934 37.825 14.5661C37.8749 14.5379 37.9136 14.4992 37.9425 14.4485C37.9707 14.3986 37.9836 14.3462 37.9836 14.2922C37.9836 14.2391 37.9691 14.1859 37.9409 14.1352ZM37.7662 14.4992L37.7299 14.4364C37.7018 14.3857 37.6792 14.3535 37.6623 14.3414C37.6486 14.3309 37.6325 14.3261 37.6091 14.3261H37.5721V14.4984H37.5045V14.0925H37.6454C37.6929 14.0925 37.7283 14.0966 37.7485 14.1054C37.7686 14.1127 37.7863 14.1264 37.8 14.1441C37.8137 14.1618 37.8185 14.1819 37.8185 14.2037C37.8185 14.2335 37.8072 14.2584 37.7863 14.281C37.7654 14.3043 37.7364 14.314 37.7026 14.318C37.7187 14.3245 37.7291 14.3317 37.7372 14.339C37.7541 14.3559 37.7734 14.38 37.7968 14.4187L37.8467 14.4992C37.8467 14.4992 37.7662 14.4992 37.7662 14.4992Z" fill="white"/>
<path d="M29.021 12.4785C28.1102 12.4785 27.9258 12.8876 27.9258 13.2283C27.9258 13.4038 28.0256 13.697 28.4122 13.697C29.1603 13.697 29.315 12.7161 29.2916 12.5075C29.2554 12.5003 29.2328 12.4793 29.021 12.4785Z" fill="white"/>
<path d="M37.7405 14.1756C37.734 14.1676 37.7252 14.1611 37.7131 14.1555C37.6994 14.1515 37.6793 14.1475 37.6471 14.1475V14.1483H37.5738V14.2707H37.6535C37.6914 14.2707 37.7163 14.2658 37.7316 14.2538C37.7437 14.2417 37.751 14.2264 37.751 14.2087C37.751 14.195 37.7477 14.1869 37.7405 14.1756Z" fill="white"/>
</svg>
