<svg width="44" height="44" viewBox="0 0 44 44" fill="none" xmlns="http://www.w3.org/2000/svg">
<g clip-path="url(#clip0_2_325)">
<path d="M25.361 17.6001L27.8849 15.1991L24.3684 14.6998C23.9614 14.6419 23.6072 14.3886 23.4215 14.0208L21.8212 10.8549L20.221 14.0208C20.0352 14.3886 19.681 14.6419 19.2739 14.6998L15.7574 15.1991L18.2814 17.6001C18.5864 17.8916 18.7267 18.3159 18.654 18.7304L18.0513 22.1583L21.2455 20.5188C21.6072 20.3343 22.0352 20.3343 22.3967 20.5188L25.591 22.1583L24.9882 18.7304C24.9158 18.3158 25.056 17.8916 25.361 17.6001Z" fill="#5E295C"/>
<path d="M21.8223 0.506897C12.7942 0.506897 5.44885 7.85226 5.44885 16.8803C5.44885 25.9083 12.7942 33.2537 21.8223 33.2537C30.8503 33.2537 38.1956 25.9083 38.1956 16.8803C38.1956 7.85226 30.8503 0.506897 21.8223 0.506897ZM31.5071 15.2309L27.5884 18.9601L28.5121 24.2195C28.6907 25.2404 27.6192 26.037 26.6954 25.5578L21.8223 23.056L16.9491 25.5578C16.028 26.0309 14.9526 25.2481 15.1324 24.2196L16.0562 18.9602L12.1375 15.231C11.3758 14.5041 11.7905 13.2179 12.8287 13.0711L18.2702 12.2986L20.6981 7.49564C21.1262 6.64695 22.5185 6.64695 22.9465 7.49564L25.3745 12.2986L30.8159 13.0711C31.854 13.2179 32.2687 14.5041 31.5071 15.2309Z" fill="#5E295C"/>
<path d="M21.8214 35.7715C18.6375 35.7715 15.6394 34.9723 13.005 33.5757V42.2369C13.005 43.2446 14.1331 43.8417 14.9631 43.2847L21.8214 38.7131L28.6798 43.2849C29.5137 43.8409 30.6379 43.2433 30.6379 42.237V33.5757C28.0034 34.9724 25.0053 35.7715 21.8214 35.7715Z" fill="#5E295C"/>
</g>
<defs>
<clipPath id="clip0_2_325">
<rect width="42.9926" height="42.9926" fill="white" transform="translate(0.324219 0.506836)"/>
</clipPath>
</defs>
</svg>
