<svg width="22" height="22" viewBox="0 0 22 22" fill="none" xmlns="http://www.w3.org/2000/svg">
<g clip-path="url(#clip0)">
<path d="M21.4014 16.1458L18.3313 13.0756C17.2348 11.9791 15.3708 12.4178 14.9322 13.8432C14.6032 14.83 13.5067 15.3783 12.5199 15.1589C10.3269 14.6107 7.36639 11.7598 6.81815 9.45721C6.4892 8.47033 7.14709 7.37384 8.13393 7.04493C9.55937 6.60634 9.99796 4.74231 8.90147 3.64582L5.83131 0.575656C4.95412 -0.191885 3.63833 -0.191885 2.87079 0.575656L0.787465 2.65898C-1.29586 4.85196 1.00676 10.6633 6.16026 15.8168C11.3137 20.9703 17.1251 23.3826 19.3181 21.1896L21.4014 19.1063C22.169 18.2291 22.169 16.9133 21.4014 16.1458Z" fill="#FF5A00"/>
</g>
<defs>
<clipPath id="clip0">
<rect width="22" height="22" fill="white"/>
</clipPath>
</defs>
</svg>
