<svg width="17" height="18" viewBox="0 0 17 18" fill="none" xmlns="http://www.w3.org/2000/svg">
<path d="M1.33501 15.1155H4.09955V17.4854C4.09955 17.6007 4.13644 17.6951 4.21067 17.7689C4.28469 17.8431 4.37932 17.8803 4.49459 17.8803H6.55551C6.66248 17.8803 6.75503 17.8431 6.8332 17.7689C6.91138 17.6951 6.95035 17.6007 6.95035 17.4854V15.1155H13.1828C13.2978 15.1155 13.3925 15.0788 13.4667 15.0046C13.5409 14.9304 13.5778 14.8359 13.5778 14.7206V13.1409C13.5778 13.0262 13.5409 12.9312 13.4667 12.8574C13.3927 12.7831 13.2978 12.746 13.1828 12.746H6.95014V11.2896H11.1463C12.7917 11.2896 14.1347 10.7882 15.1758 9.78405C16.2164 8.78091 16.737 7.48509 16.737 5.89653C16.737 4.30902 16.2164 3.01317 15.1758 2.009C14.1349 1.00582 12.7917 0.503418 11.1463 0.503418H4.49439C4.37908 0.503418 4.28466 0.540513 4.21047 0.61433C4.13644 0.688554 4.09935 0.783592 4.09935 0.898251V8.66124H1.33501C1.21974 8.66124 1.12528 8.70024 1.05109 8.77839C0.977101 8.85656 0.939972 8.94911 0.939972 9.05604V10.8947C0.939972 11.01 0.976863 11.1045 1.05109 11.1787C1.12531 11.2529 1.21953 11.2896 1.33501 11.2896H4.09955V12.746H1.33501C1.21974 12.746 1.12528 12.7831 1.05109 12.8573C0.977101 12.9311 0.939972 13.026 0.939972 13.1408V14.7206C0.939972 14.8359 0.976863 14.9304 1.05109 15.0046C1.12528 15.0788 1.2197 15.1155 1.33501 15.1155ZM6.95014 3.13242H10.8994C11.7715 3.13242 12.4748 3.38739 13.0098 3.89749C13.5445 4.40763 13.8119 5.07429 13.8119 5.89673C13.8119 6.71957 13.5445 7.38644 13.0098 7.89596C12.4748 8.40651 11.7714 8.66148 10.8994 8.66148H6.95014V3.13242Z" fill="#EB5A27"/>
</svg>
