<svg width="19" height="31" viewBox="0 0 19 31" fill="none" xmlns="http://www.w3.org/2000/svg">
<path d="M0 30V1H2.42891V30H0Z" fill="white"/>
<path d="M8.0154 11.44C7.82109 8.656 9.71564 6.8 10.6872 6.22H14.8163H18.9455C17.9739 6.8 16.0794 8.656 16.2737 11.44C16.5166 14.92 19.4313 16.66 18.9455 20.14C18.5569 22.924 17.0024 25.7467 16.2737 26.81H12.1445H8.0154C8.74408 25.7467 10.2986 22.924 10.6872 20.14C11.173 16.66 8.25829 14.92 8.0154 11.44Z" fill="white"/>
<path fill-rule="evenodd" clip-rule="evenodd" d="M0.592154 0C0.919191 0 1.18431 0.343021 1.18431 0.76616V30.2338C1.18431 30.657 0.919191 31 0.592154 31C0.265116 31 0 30.657 0 30.2338V0.76616C0 0.343021 0.265116 0 0.592154 0ZM3.32517 0C3.65221 0 3.91732 0.343021 3.91732 0.76616V30.2338C3.91732 30.657 3.65221 31 3.32517 31C2.99813 31 2.73302 30.657 2.73302 30.2338V0.76616C2.73302 0.343021 2.99813 0 3.32517 0ZM11.1429 5.72771C11.2891 6.10617 11.1705 6.56638 10.878 6.75562C10.4941 7.00402 9.89496 7.55214 9.4197 8.35022C8.9503 9.13846 8.62217 10.1327 8.69806 11.3109C8.78858 12.7163 9.3271 13.7976 9.94083 15.0298C9.99859 15.1458 10.057 15.2631 10.1158 15.3822C10.776 16.7192 11.4648 18.2645 11.1973 20.3408C10.8085 23.3596 9.27842 26.3513 8.56625 27.4776C8.35916 27.805 7.98609 27.8533 7.73298 27.5854C7.47986 27.3174 7.44256 26.8347 7.64965 26.5072C8.30398 25.4725 9.68918 22.7279 10.0291 20.0889C10.2172 18.629 9.76719 17.5223 9.1178 16.2072C9.05827 16.0866 8.99677 15.964 8.93409 15.8389C8.33741 14.6489 7.63432 13.2466 7.51784 11.4382C7.41153 9.7875 7.88053 8.42428 8.48156 7.41499C9.07673 6.41554 9.82136 5.72602 10.3484 5.38507C10.6409 5.19583 10.9966 5.34924 11.1429 5.72771ZM15.0146 5.72771C15.1609 6.10617 15.0423 6.56638 14.7498 6.75562C14.3658 7.00402 13.7667 7.55214 13.2915 8.35022C12.8221 9.13846 12.4939 10.1327 12.5698 11.3109C12.6604 12.7163 13.1989 13.7976 13.8126 15.0298C13.8704 15.1458 13.9288 15.2631 13.9876 15.3822C14.6478 16.7192 15.3365 18.2645 15.0691 20.3408C14.6802 23.3596 13.1502 26.3513 12.438 27.4776C12.2309 27.805 11.8579 27.8533 11.6047 27.5854C11.3516 27.3174 11.3143 26.8347 11.5214 26.5072C12.1758 25.4725 13.561 22.7279 13.9009 20.0889C14.0889 18.629 13.639 17.5223 12.9896 16.2072C12.93 16.0866 12.8685 15.964 12.8059 15.8389C12.2092 14.6489 11.5061 13.2466 11.3896 11.4382C11.2833 9.7875 11.7523 8.42428 12.3533 7.41499C12.9485 6.41554 13.6931 5.72602 14.2202 5.38507C14.5127 5.19583 14.8684 5.34924 15.0146 5.72771ZM18.8864 5.72771C19.0327 6.10617 18.9141 6.56638 18.6216 6.75562C18.2376 7.00402 17.6385 7.55214 17.1632 8.35022C16.6938 9.13846 16.3657 10.1327 16.4416 11.3109C16.5321 12.7163 17.0707 13.7976 17.6844 15.0298C17.7421 15.1458 17.8006 15.2631 17.8594 15.3822C18.5195 16.7192 19.2083 18.2645 18.9409 20.3408C18.552 23.3596 17.022 26.3513 16.3098 27.4776C16.1027 27.805 15.7296 27.8533 15.4765 27.5854C15.2234 27.3174 15.1861 26.8347 15.3932 26.5072C16.0475 25.4725 17.4327 22.7279 17.7727 20.0889C17.9607 18.629 17.5107 17.5223 16.8613 16.2072C16.8018 16.0866 16.7403 15.964 16.6776 15.839C16.081 14.6489 15.3779 13.2466 15.2614 11.4382C15.1551 9.7875 15.6241 8.42428 16.2251 7.41499C16.8203 6.41554 17.5649 5.72602 18.0919 5.38507C18.3845 5.19583 18.7401 5.34924 18.8864 5.72771Z" fill="#8D90C4"/>
</svg>
