<svg width="31" height="31" viewBox="0 0 31 31" fill="none" xmlns="http://www.w3.org/2000/svg">
<path d="M1.27271 29.7273V1.86572H10.1912H29.7271V6.08718V17.063V29.7273H10.1912H1.27271Z" fill="white"/>
<path fill-rule="evenodd" clip-rule="evenodd" d="M0.500244 1.86585C0.500244 1.44024 0.845271 1.09521 1.27088 1.09521H29.7253C30.1509 1.09521 30.4959 1.44024 30.4959 1.86585V3.55444C30.4959 3.98005 30.1509 4.32508 29.7253 4.32508C29.2997 4.32508 28.9546 3.98005 28.9546 3.55444V2.63649H10.9601V16.2924H22.5055C22.9311 16.2924 23.2762 16.6375 23.2762 17.0631C23.2762 17.4887 22.9311 17.8337 22.5055 17.8337H10.9601V21.7067C10.9601 22.1323 10.615 22.4773 10.1894 22.4773C9.76382 22.4773 9.41879 22.1323 9.41879 21.7067V2.63649H2.04152V28.9568H9.41879V25.9281C9.41879 25.5025 9.76382 25.1575 10.1894 25.1575C10.615 25.1575 10.9601 25.5025 10.9601 25.9281V28.9568H28.9546V17.8337H25.9031C25.4774 17.8337 25.1324 17.4887 25.1324 17.0631C25.1324 16.6375 25.4774 16.2924 25.9031 16.2924H28.9546V6.08731C28.9546 5.6617 29.2997 5.31667 29.7253 5.31667C30.1509 5.31667 30.4959 5.6617 30.4959 6.08731V29.7275C30.4959 30.1531 30.1509 30.4981 29.7253 30.4981H1.27088C0.845271 30.4981 0.500244 30.1531 0.500244 29.7275V1.86585Z" fill="#8D90C4"/>
</svg>
