<svg width="22" height="31" viewBox="0 0 22 31" fill="none" xmlns="http://www.w3.org/2000/svg">
<path d="M11.4408 28.2453C11.0919 27.5339 6.35312 10.7577 4.02734 2.4585H11.4408L17.982 10.7577V24.3921L11.4408 28.2453Z" fill="white"/>
<path fill-rule="evenodd" clip-rule="evenodd" d="M3.56105 2.02133C3.66686 1.81262 3.84139 1.68799 4.02785 1.68799H11.4413C11.5848 1.68799 11.7231 1.76206 11.8281 1.89525L18.3693 10.1944C18.4842 10.3402 18.5494 10.5442 18.5494 10.7578V24.3922C18.5494 24.6994 18.4152 24.9772 18.2079 25.0993L11.6667 28.9525C11.4151 29.1007 11.1216 28.983 10.9696 28.6729C10.9166 28.565 10.8582 28.394 10.8093 28.2468C10.7518 28.0736 10.6797 27.8456 10.5951 27.5716C10.4258 27.0225 10.2016 26.2716 9.93634 25.3691C9.40563 23.563 8.7071 21.1372 7.94739 18.4763C6.4278 13.1539 4.66121 6.88344 3.49808 2.73297C3.4317 2.49611 3.45525 2.23003 3.56105 2.02133ZM4.85065 3.22927C6.00384 7.33911 7.60857 13.0298 9.00439 17.9186C9.70988 20.3896 10.3615 22.6541 10.8743 24.4056V3.22927H4.85065ZM12.0082 4.23204L17.4156 11.0927V23.8863L12.0082 27.0716V4.23204Z" fill="#8D90C4"/>
</svg>
