<svg width="32" height="18" viewBox="0 0 32 18" fill="none" xmlns="http://www.w3.org/2000/svg">
<path d="M1.27271 13.9989V10.8958L5.7187 4.17236H10.4611H15.7963H21.1315L30.3199 10.8958V13.9989H1.27271Z" fill="white"/>
<path fill-rule="evenodd" clip-rule="evenodd" d="M4.99761 4.01193C5.11208 3.83883 5.39802 3.72461 5.71688 3.72461H21.1297C21.3646 3.72461 21.5868 3.78695 21.733 3.89393L30.9214 10.6174C31.0297 10.6967 31.0887 10.795 31.0887 10.8963V13.9994C31.0887 14.247 30.7437 14.4476 30.3181 14.4476H1.27088C0.845271 14.4476 0.500244 14.247 0.500244 13.9994V10.8963C0.500244 10.8413 0.517656 10.7867 0.551611 10.7354L4.99761 4.01193ZM6.24616 4.62107L2.39296 10.448H9.41175L9.66863 4.62107H6.24616ZM11.2104 4.62107L10.9535 10.448H19.1184L15.2652 4.62107H11.2104ZM16.9166 4.62107L20.7698 10.448H28.7211L20.7578 4.62107H16.9166ZM29.5474 11.3445H2.04152V13.5512H29.5474V11.3445Z" fill="#8D90C4"/>
</svg>
