<svg width="17" height="28" viewBox="0 0 17 28" fill="none" xmlns="http://www.w3.org/2000/svg">
<path d="M8.78026 26.8615H0.999756V0.77832H8.78026L15.6716 9.07752V22.7119L8.78026 26.8615Z" fill="white"/>
<path fill-rule="evenodd" clip-rule="evenodd" d="M0.421875 0.778453C0.421875 0.35284 0.680645 0.0078125 0.999855 0.0078125H8.78036C8.9235 0.0078125 9.06154 0.0786323 9.16777 0.206559L16.0591 8.50576C16.1804 8.65187 16.2496 8.85966 16.2496 9.07765V22.7121C16.2496 23.0149 16.1166 23.2897 15.9095 23.4144L9.01824 27.564C8.94348 27.609 8.86239 27.6323 8.78036 27.6323H0.999855C0.680645 27.6323 0.421875 27.2873 0.421875 26.8617V0.778453ZM1.57784 1.54909V26.091H8.20238V1.54909H1.57784ZM9.35834 2.51297L15.0937 9.42005V22.2145L9.35834 25.668V2.51297Z" fill="#8D90C4"/>
</svg>
