<svg width="31" height="30" viewBox="0 0 31 30" fill="none" xmlns="http://www.w3.org/2000/svg">
<path d="M28.9154 26.9961H4.01776L28.9154 3.87695V26.9961Z" fill="white"/>
<path d="M12.9098 12.769C16.4666 11.1091 18.3438 7.33495 18.8378 5.65535C15.5774 8.91575 6.38896 7.43375 4.61056 7.73015C2.83216 8.02655 1.64656 10.9906 3.12856 13.0654C4.61056 15.1402 8.46376 14.8438 12.9098 12.769Z" fill="white"/>
<path fill-rule="evenodd" clip-rule="evenodd" d="M29.2244 3.1707C29.5054 3.29322 29.687 3.57059 29.687 3.8771V26.9963C29.687 27.4219 29.342 27.7669 28.9164 27.7669H4.01876C3.70187 27.7669 3.41728 27.573 3.30144 27.278C3.18561 26.983 3.26216 26.6472 3.49438 26.4316L28.392 3.31238C28.6166 3.10382 28.9434 3.04819 29.2244 3.1707ZM5.98122 26.2257H28.1457V5.64434L5.98122 26.2257ZM19.2321 4.99283C19.5351 5.17265 19.6775 5.53499 19.5781 5.87295C19.3065 6.7963 18.6753 8.23794 17.6496 9.66871C16.6224 11.1016 15.1692 12.5656 13.2367 13.4674C10.9603 14.5298 8.78283 15.1633 6.94213 15.2433C5.11291 15.3228 3.45983 14.8537 2.50246 13.5134C1.59775 12.2468 1.51869 10.7258 1.91424 9.49518C2.29912 8.29777 3.2093 7.18274 4.48487 6.97015C4.7831 6.92044 5.18437 6.91345 5.61018 6.91921C6.04017 6.92503 6.55497 6.94554 7.11681 6.96793L7.15701 6.96954C8.32138 7.01592 9.71491 7.07034 11.1499 7.03401C12.5876 6.99761 14.037 6.87047 15.3101 6.56422C16.5926 6.25573 17.6214 5.78297 18.2938 5.11058C18.5429 4.86148 18.9292 4.81301 19.2321 4.99283ZM5.58933 8.46035C5.15951 8.45453 4.88462 8.46606 4.73825 8.49046C4.23542 8.57426 3.6636 9.08944 3.38158 9.96682C3.11023 10.811 3.17937 11.8094 3.75666 12.6176C4.28129 13.3521 5.2958 13.7722 6.87518 13.7035C8.44309 13.6353 10.4152 13.0832 12.5849 12.0708C14.2091 11.3128 15.4729 10.0598 16.397 8.77071C16.6794 8.37682 16.9272 7.98348 17.1416 7.60554C16.6697 7.79165 16.1747 7.9415 15.6706 8.06276C14.2483 8.40488 12.6781 8.53709 11.1889 8.57479C9.69696 8.61257 8.25616 8.55583 7.09565 8.50959L7.07053 8.50859C6.49619 8.48571 5.99876 8.46589 5.58933 8.46035Z" fill="#8D90C4"/>
</svg>
