<svg width="27" height="30" viewBox="0 0 27 30" fill="none" xmlns="http://www.w3.org/2000/svg">
<path d="M23.3702 1.50586H4.48661L3.47949 4.17346L7.2562 16.0295L9.52223 10.3979L13.2989 22.2539L15.8167 17.2151L19.5935 29.0711L23.3702 28.1819V1.50586Z" fill="white"/>
<path fill-rule="evenodd" clip-rule="evenodd" d="M3.8303 1.50599C3.8303 1.08038 4.12339 0.735352 4.48493 0.735352H23.3685C23.73 0.735352 24.0231 1.08038 24.0231 1.50599V28.182C24.0231 28.6076 23.73 28.9526 23.3685 28.9526C23.0069 28.9526 22.7138 28.6076 22.7138 28.182V2.27663H4.48493C4.12339 2.27663 3.8303 1.9316 3.8303 1.50599ZM3.24795 3.45202C3.58647 3.30258 3.96381 3.50449 4.09075 3.903L7.86746 15.759C7.99441 16.1575 7.82289 16.6017 7.48437 16.7512C7.14585 16.9006 6.76851 16.6987 6.64157 16.3002L2.86486 4.44418C2.73791 4.04567 2.90943 3.60146 3.24795 3.45202ZM9.29068 9.67642C9.62921 9.52698 10.0065 9.72889 10.1335 10.1274L13.9102 21.9834C14.0371 22.3819 13.8656 22.8261 13.5271 22.9756C13.1886 23.125 12.8112 22.9231 12.6843 22.5246L8.90759 10.6686C8.78065 10.2701 8.95216 9.82586 9.29068 9.67642ZM15.5852 16.4936C15.9237 16.3442 16.3011 16.5461 16.428 16.9446L20.2047 28.8006C20.3317 29.1991 20.1601 29.6433 19.8216 29.7928C19.4831 29.9422 19.1058 29.7403 18.9788 29.3418L15.2021 17.4858C15.0752 17.0873 15.2467 16.6431 15.5852 16.4936Z" fill="#8D90C4"/>
</svg>
