<svg width="33" height="20" viewBox="0 0 33 20" fill="none" xmlns="http://www.w3.org/2000/svg">
<path d="M4.67387 16.5752H1.67993V10.9865L6.47023 3.40186H21.7393L31.3199 10.9865V14.5792H4.67387V16.5752Z" fill="white"/>
<path fill-rule="evenodd" clip-rule="evenodd" d="M5.76109 3.20258C5.88142 3.01207 6.16128 2.88818 6.47134 2.88818H21.7404C21.9678 2.88818 22.1835 2.95509 22.3299 3.07101L31.9105 10.6557C32.0275 10.7483 32.0917 10.8655 32.0917 10.9866V14.5793C32.0917 14.8631 31.7467 15.0931 31.321 15.0931H5.44562V16.5753C5.44562 16.859 5.10059 17.089 4.67498 17.089H1.68104C1.25543 17.089 0.9104 16.859 0.9104 16.5753V10.9866C0.9104 10.9181 0.930933 10.8503 0.970791 10.7872L5.76109 3.20258ZM6.98303 3.9157L2.84169 10.4728H29.6646L21.3819 3.9157H6.98303ZM30.5504 11.5003H2.45168V16.0615H3.90434V14.5793C3.90434 14.2956 4.24937 14.0656 4.67498 14.0656H30.5504V11.5003Z" fill="#8D90C4"/>
</svg>
