<svg width="19" height="19" viewBox="0 0 19 19" fill="none" xmlns="http://www.w3.org/2000/svg">
<path d="M18.827 5.92991L14.92 9.69474L14.1184 8.8458L17.0752 5.99642C17.3612 5.72082 17.369 5.2661 17.0932 4.98032L14.4536 2.24477C14.3199 2.10697 14.14 2.02849 13.9482 2.02549C13.7581 2.0213 13.5741 2.09379 13.4362 2.2262L11.1058 4.47107L13.1292 6.56497C13.2947 6.73812 13.2815 7.0233 13.1082 7.19165C12.9865 7.30787 12.8085 7.34442 12.6574 7.29529L9.72216 4.1853L13.5627 0.48098C13.7959 0.258709 14.17 0.271291 14.3936 0.503148L18.833 5.10194C19.0566 5.3332 19.0566 5.70644 18.827 5.92991ZM5.56331 17.0914C5.42722 17.2238 5.24257 17.2963 5.05252 17.2915C4.86127 17.2879 4.67962 17.2094 4.54653 17.0734L1.90685 14.3367C1.63167 14.0509 1.63887 13.6004 1.92484 13.3224L3.13886 14.5829C3.30613 14.756 3.5807 14.7608 3.75397 14.5955C3.92723 14.4301 3.93082 14.1563 3.76296 13.9826L2.55073 12.7203L2.87387 12.4081L4.0879 13.6687C4.25396 13.8406 4.52854 13.8466 4.703 13.6812C4.87566 13.5129 4.87986 13.2403 4.71199 13.066L3.49857 11.8072L3.82231 11.4951L5.03513 12.7544C5.2024 12.9264 5.47818 12.9323 5.65024 12.767C5.8247 12.6004 5.8277 12.3272 5.66103 12.1529L4.44701 10.8936L4.77015 10.5814L5.98417 11.8396C6.15084 12.0139 6.42542 12.0193 6.59928 11.8521C6.66342 11.7898 6.70539 11.712 6.72218 11.6317L4.47459 9.2472L0.173648 13.3889C-0.0565669 13.6123 -0.0565669 13.9868 0.165854 14.2174L4.60528 18.8192C4.8283 19.0505 5.2036 19.0631 5.43381 18.8384L9.6706 14.7572L8.86965 13.9083L5.56331 17.0914ZM13.3205 5.78433C12.7605 5.20619 12.7773 4.27996 13.3576 3.72218C13.935 3.16321 14.8612 3.17999 15.4194 3.75873C15.9793 4.33807 15.9595 5.2643 15.3822 5.82088C14.8061 6.37985 13.8798 6.36307 13.3205 5.78433ZM13.947 5.18042C14.1724 5.41168 14.5441 5.41827 14.7791 5.1942C15.0111 4.96954 15.0177 4.59689 14.7923 4.36443C14.5675 4.13198 14.1946 4.12419 13.9619 4.34886C13.7293 4.57352 13.7221 4.94617 13.947 5.18042ZM16.3049 12.6508L12.4841 16.2484L3.96919 7.2198L7.79112 3.62213L16.3049 12.6508ZM8.432 6.1396C8.4338 6.05333 8.40262 5.96826 8.34147 5.90475L7.92541 5.465C7.80191 5.3338 7.59387 5.32721 7.46138 5.45122L7.23596 5.66271C7.10347 5.78613 7.09807 5.99582 7.22157 6.12642L7.63524 6.56917C7.69699 6.63267 7.77853 6.67102 7.86665 6.67162C7.95359 6.67521 8.32768 6.37026 8.32768 6.37026C8.39123 6.30975 8.4284 6.22707 8.432 6.1396ZM14.3468 12.7532C14.4805 12.6286 14.4853 12.4201 14.36 12.2883L9.57648 7.21681C9.51653 7.15211 9.43499 7.11496 9.34626 7.11316C9.26053 7.11017 9.1748 7.14312 9.11185 7.20183L8.88583 7.41512C8.75334 7.53913 8.74735 7.74643 8.87205 7.87883L13.655 12.9509C13.7173 13.0144 13.7977 13.0528 13.887 13.0552C13.9745 13.0582 14.0591 13.0252 14.1232 12.9653L14.3468 12.7532ZM3.5825 6.80821L7.40323 3.20934L6.41642 2.16329L2.5963 5.76276L3.5825 6.80821ZM0.893069 3.95464C0.685036 3.73416 0.574725 3.44359 0.583118 3.14164C0.59271 2.84029 0.720408 2.55631 0.940431 2.34961L3.10589 0.310832C3.56152 -0.121727 4.28094 -0.0995602 4.71199 0.356964L6.05431 1.77986L2.23359 5.37753L0.893069 3.95464ZM1.57472 3.1716L2.27616 3.91689L4.59209 1.73612L3.88886 0.992024L1.57472 3.1716ZM18.2431 17.79C18.3085 17.9973 18.2491 18.2231 18.092 18.3717C17.9338 18.5209 17.7047 18.5646 17.5027 18.4873L12.9679 16.7583L16.7845 13.1594L18.2431 17.79ZM17.0315 16.2359L16.4577 14.4152L14.2389 16.5067L16.0243 17.1873L17.0315 16.2359Z" fill="#FF5A00"/>
</svg>
