<svg width="39" height="39" viewBox="0 0 39 39" fill="none" xmlns="http://www.w3.org/2000/svg">
<g clip-path="url(#clip0_2_379)">
<path d="M29.8968 20.756H22.5465C21.4419 20.756 20.5465 21.6514 20.5465 22.7559V30.1054C20.5465 31.21 21.4419 32.1054 22.5465 32.1054H29.8968C31.0013 32.1054 31.8967 31.21 31.8967 30.1054V22.7559C31.8967 21.6514 31.0013 20.756 29.8968 20.756Z" fill="#5D295C"/>
<path d="M15.6058 6.46289H8.25624C7.15171 6.46289 6.25632 7.35828 6.25632 8.46281V15.8132C6.25632 16.9177 7.15171 17.8131 8.25624 17.8131H15.6058C16.7103 17.8131 17.6057 16.9177 17.6057 15.8132V8.46281C17.6057 7.35828 16.7103 6.46289 15.6058 6.46289Z" fill="#5D295C"/>
<path d="M29.8968 6.46289H22.5465C21.4419 6.46289 20.5465 7.35828 20.5465 8.46281V15.8132C20.5465 16.9177 21.4419 17.8131 22.5465 17.8131H29.8968C31.0013 17.8131 31.8967 16.9177 31.8967 15.8132V8.46281C31.8967 7.35828 31.0013 6.46289 29.8968 6.46289Z" fill="#5D295C"/>
<path d="M37.0234 0.283325H1.12689C0.546782 0.283325 0.0758972 0.753401 0.0758972 1.33432V37.2308C0.0758972 37.8109 0.546782 38.2818 1.12689 38.2818H37.0234C37.6043 38.2818 38.0744 37.8109 38.0744 37.2308V1.33432C38.0744 0.753401 37.6043 0.283325 37.0234 0.283325ZM34.838 35.0455H3.31222V3.51884H34.838V35.0455Z" fill="#5D295C"/>
<path d="M15.6058 20.756H8.25624C7.15171 20.756 6.25632 21.6514 6.25632 22.7559V30.1054C6.25632 31.21 7.15171 32.1054 8.25624 32.1054H15.6058C16.7103 32.1054 17.6057 31.21 17.6057 30.1054V22.7559C17.6057 21.6514 16.7103 20.756 15.6058 20.756Z" fill="#5D295C"/>
</g>
<defs>
<clipPath id="clip0_2_379">
<rect x="0.0751953" y="0.283203" width="37.9985" height="37.9985" rx="4.9998" fill="white"/>
</clipPath>
</defs>
</svg>
