<svg width="43" height="43" viewBox="0 0 43 43" fill="none" xmlns="http://www.w3.org/2000/svg">
<g clip-path="url(#clip0_2_372)">
<g clip-path="url(#clip1_2_372)">
<path d="M41.2133 0.271122C33.0149 0.124128 23.665 4.4097 17.7468 11.0577C12.091 11.1644 6.58396 13.4831 2.52937 17.5377C2.29313 17.7704 2.20914 18.1186 2.31238 18.4336C2.41738 18.7504 2.69037 18.9796 3.01935 19.0269L9.76358 19.9928L8.93061 20.9255C8.62088 21.272 8.63662 21.7987 8.96561 22.1277L20.2124 33.3745C20.3821 33.5443 20.6061 33.63 20.8319 33.63C21.0401 33.63 21.2484 33.5565 21.4146 33.4078L22.3473 32.5748L23.3133 39.319C23.3605 39.648 23.6195 39.8895 23.9328 39.9945C24.0133 40.0207 24.0972 40.033 24.183 40.033C24.4315 40.033 24.6852 39.9245 24.8602 39.7513C28.8588 35.7527 31.1775 30.2457 31.2842 24.5899C37.9392 18.6594 42.2598 9.313 42.069 1.12509C42.0568 0.659606 41.6805 0.283371 41.2133 0.271122ZM33.1496 15.3765C32.2974 16.2287 31.1775 16.6557 30.0558 16.6557C28.9341 16.6557 27.8141 16.2287 26.9619 15.3765C25.2575 13.6703 25.2575 10.8949 26.9619 9.18876C28.6681 7.48258 31.4434 7.48258 33.1496 9.18876C34.8558 10.8949 34.8558 13.6721 33.1496 15.3765Z" fill="#5D295C"/>
<path d="M4.84241 29.85C2.96998 31.7224 0.399338 40.1816 0.112349 41.1388C0.0196032 41.4468 0.10535 41.781 0.331091 42.0085C0.499084 42.1765 0.721325 42.2658 0.950565 42.2658C1.03456 42.2658 1.11856 42.2535 1.20256 42.229C2.15977 41.942 10.6189 39.3714 12.4913 37.4989C14.6 35.3903 14.6 31.9587 12.4913 29.85C10.3809 27.7413 6.95107 27.7431 4.84241 29.85Z" fill="#5D295C"/>
</g>
</g>
<defs>
<clipPath id="clip0_2_372">
<rect width="41.9983" height="41.9983" fill="white" transform="translate(0.0751953 0.266602)"/>
</clipPath>
<clipPath id="clip1_2_372">
<rect width="41.9983" height="41.9983" fill="white" transform="translate(0.0751038 0.266479)"/>
</clipPath>
</defs>
</svg>
