<svg width="40" height="13" viewBox="0 0 40 13" fill="none" xmlns="http://www.w3.org/2000/svg">
<path d="M16.013 0.203125L13.9805 12.1327H17.2312L19.2654 0.203125H16.013Z" fill="white"/>
<path d="M11.2569 0.217353L8.0731 8.35299L7.73365 7.12457C7.10574 5.64445 5.3232 3.51877 3.23047 2.17914L6.14173 12.1277L9.5814 12.1219L14.7008 0.214844L11.2569 0.217353Z" fill="white"/>
<path d="M6.49809 1.07075C6.30913 0.344068 5.76149 0.127485 5.08175 0.101562H0.0418045L0 0.339051C3.9221 1.29067 6.51732 3.5836 7.5942 6.34064L6.49809 1.07075Z" fill="white"/>
<path d="M25.854 2.49195C26.9175 2.47523 27.6884 2.7077 28.287 2.94853L28.5805 3.08651L29.0203 0.500898C28.3765 0.259229 27.3673 0 26.1082 0C22.8959 0 20.6318 1.61809 20.6142 3.93695C20.5933 5.65037 22.2271 6.60702 23.4611 7.17816C24.7278 7.76352 25.1525 8.13564 25.1467 8.65828C25.1366 9.45687 24.1367 9.82314 23.2028 9.82314C21.901 9.82314 21.2095 9.64335 20.1418 9.19848L19.723 9.00782L19.2656 11.6779C20.0265 12.0115 21.4303 12.2984 22.8876 12.3134C26.3047 12.3134 28.5253 10.7146 28.5487 8.23682C28.5629 6.8813 27.6959 5.84689 25.8172 4.99812C24.6801 4.44454 23.9845 4.0766 23.9912 3.518C23.9912 3.02212 24.5815 2.49195 25.854 2.49195Z" fill="white"/>
<path d="M37.3657 0.21875H34.8541C34.074 0.21875 33.4938 0.431151 33.151 1.20884L28.3242 12.1416H31.738C31.738 12.1416 32.2948 10.6716 32.4211 10.3496C32.7948 10.3496 36.1116 10.3546 36.5839 10.3546C36.6809 10.7711 36.9803 12.1416 36.9803 12.1416H39.996L37.3657 0.21875ZM33.3566 7.90784C33.6242 7.22297 34.6517 4.57381 34.6517 4.57381C34.6342 4.60642 34.9168 3.88392 35.0848 3.43487L35.3039 4.46343C35.3039 4.46343 35.9268 7.31161 36.0572 7.90784H33.3566Z" fill="white"/>
</svg>
