<svg width="21" height="21" viewBox="0 0 21 21" fill="none" xmlns="http://www.w3.org/2000/svg">
<g clip-path="url(#clip0_2:188)">
<path d="M19.6828 19.7423C19.1103 19.3036 18.4909 18.9296 17.836 18.6273L15.4949 17.5464C15.3791 17.8764 15.0763 18.615 14.478 19.3576C14.2252 19.6715 13.9493 19.9496 13.653 20.1918H20.2694L19.6828 19.7423Z" fill="#EB5A27"/>
<path d="M6.06067 19.3576C5.46237 18.615 5.15964 17.8764 5.04382 17.5464L2.70267 18.6273C2.04776 18.9296 1.42841 19.3036 0.855896 19.7423L0.269348 20.1918H6.88571C6.58954 19.9496 6.31351 19.6716 6.06067 19.3576V19.3576Z" fill="#EB5A27"/>
<path d="M14.0837 16.5201V16.3867C13.0512 17.2548 11.7203 17.7785 10.2693 17.7785C8.81839 17.7785 7.48752 17.2548 6.45511 16.3867V16.5201C6.45511 16.748 6.32144 16.9569 6.11469 17.0523C6.11469 17.0523 7.01892 20.1921 10.2695 20.1921C13.5199 20.1921 14.4242 17.0523 14.4242 17.0523C14.2173 16.9569 14.0837 16.748 14.0837 16.5201V16.5201Z" fill="#EB5A27"/>
<path d="M10.2693 16.6057C12.8972 16.6057 15.035 14.4671 15.035 11.8381V9.72754H5.50372V11.8381C5.50372 14.4671 7.64163 16.6057 10.2693 16.6057V16.6057Z" fill="#EB5A27"/>
<path d="M4.26776 8.55481H16.2709C16.5946 8.55481 16.8569 8.29236 16.8569 7.96872C16.8569 7.64493 16.5946 7.38248 16.2709 7.38248H15.7787V6.7764C15.7787 4.88705 14.8235 3.21713 13.371 2.22363V4.69693C13.371 5.02072 13.1087 5.28317 12.7851 5.28317C12.4616 5.28317 12.1991 5.02072 12.1991 4.69693V1.85086C12.1991 1.77289 12.2147 1.69843 12.2425 1.63037C11.8041 1.46161 11.339 1.34732 10.8553 1.2959V5.41592C10.8553 5.73972 10.5928 6.00217 10.2693 6.00217C9.94571 6.00217 9.68341 5.73972 9.68341 5.41592V1.2959C9.19971 1.34717 8.73477 1.46161 8.29654 1.63022C8.32416 1.69843 8.33972 1.77274 8.33972 1.85086V4.69693C8.33972 5.02072 8.07742 5.28317 7.75378 5.28317C7.43015 5.28317 7.16785 5.02072 7.16785 4.69693V2.22333C5.71521 3.21683 4.75986 4.88705 4.75986 6.7764V7.38248H4.26761C3.94412 7.38248 3.68167 7.64493 3.68167 7.96872C3.68167 8.29236 3.94412 8.55481 4.26776 8.55481Z" fill="#EB5A27"/>
<path d="M13.371 1.85138C13.371 1.52759 13.1087 1.26514 12.7851 1.26514C12.5396 1.26514 12.3294 1.4165 12.2425 1.63104C12.6432 1.78531 13.0216 1.98505 13.371 2.22415V1.85138Z" fill="#EB5A27"/>
<path d="M7.75394 1.26514C7.4303 1.26514 7.168 1.52759 7.168 1.85138V2.22385C7.51743 1.98474 7.89584 1.785 8.29654 1.63074C8.20941 1.4165 7.99945 1.26514 7.75394 1.26514Z" fill="#EB5A27"/>
<path d="M10.8553 1.29617V0.778137C10.8553 0.454346 10.593 0.191895 10.2693 0.191895C9.94571 0.191895 9.68341 0.454346 9.68341 0.778137V1.29617C9.87598 1.27557 10.0714 1.26489 10.2693 1.26489C10.4673 1.26489 10.6627 1.27557 10.8553 1.29617Z" fill="#EB5A27"/>
</g>
<defs>
<clipPath id="clip0_2:188">
<rect width="20" height="20" fill="white" transform="translate(0.269348 0.191895)"/>
</clipPath>
</defs>
</svg>
