<svg width="42" height="43" viewBox="0 0 42 43" fill="none" xmlns="http://www.w3.org/2000/svg">
<path d="M0.552826 21.5002C0.552826 33.0949 4.40318 42.4943 9.15283 42.4943L17.2469 42.4943C19.4182 42.6804 23.187 40.6482 25.027 32.6296C25.6878 29.75 29.1352 28.0767 29.1352 21.5002C29.1352 14.9237 25.5525 12.1582 24.7078 9.10608C22.7788 2.13615 19.2992 0.330164 17.2469 0.506075L9.15283 0.506075C4.40318 0.506075 0.552826 9.90546 0.552826 21.5002Z" fill="#C4C4C4" fill-opacity="0.5"/>
<path fill-rule="evenodd" clip-rule="evenodd" d="M33.4348 20.2354C33.4348 19.956 33.6612 19.7295 33.9406 19.7295L40.5171 19.7295C40.7965 19.7295 41.023 19.956 41.023 20.2354C41.023 20.5148 40.7965 20.7413 40.5171 20.7413L33.9406 20.7413C33.6612 20.7413 33.4348 20.5148 33.4348 20.2354Z" fill="#BABABA"/>
<path fill-rule="evenodd" clip-rule="evenodd" d="M32.7178 12.6937C32.6007 12.44 32.7114 12.1395 32.9651 12.0224L38.6229 9.41107C38.8766 9.29399 39.1772 9.40473 39.2943 9.6584C39.4113 9.91208 39.3006 10.2126 39.0469 10.3297L33.3891 12.941C33.1354 13.0581 32.8349 12.9474 32.7178 12.6937Z" fill="#BABABA"/>
<path fill-rule="evenodd" clip-rule="evenodd" d="M30.5949 6.17715C30.4234 5.95661 30.4631 5.63878 30.6837 5.46725L34.438 2.54724C34.6585 2.37571 34.9763 2.41544 35.1479 2.63597C35.3194 2.85651 35.2797 3.17435 35.0591 3.34588L31.3048 6.26589C31.0843 6.43742 30.7664 6.39769 30.5949 6.17715Z" fill="#BABABA"/>
<path fill-rule="evenodd" clip-rule="evenodd" d="M30.5949 35.3053C30.4234 35.5258 30.4631 35.8436 30.6837 36.0152L34.438 38.9352C34.6585 39.1067 34.9763 39.067 35.1479 38.8464C35.3194 38.6259 35.2797 38.3081 35.0591 38.1365L31.3048 35.2165C31.0843 35.045 30.7664 35.0847 30.5949 35.3053Z" fill="#BABABA"/>
<path fill-rule="evenodd" clip-rule="evenodd" d="M32.7178 27.777C32.6007 28.0307 32.7114 28.3312 32.9651 28.4483L38.6229 31.0596C38.8766 31.1767 39.1772 31.066 39.2943 30.8123C39.4113 30.5586 39.3006 30.2581 39.0469 30.141L33.3891 27.5297C33.1354 27.4126 32.8349 27.5233 32.7178 27.777Z" fill="#BABABA"/>
<path fill-rule="evenodd" clip-rule="evenodd" d="M12.1657 6.8484C10.6242 10.5725 9.65886 15.7524 9.65886 21.5C9.65886 27.2476 10.6242 32.4275 12.1657 36.1516C12.937 38.0148 13.8425 39.4895 14.8222 40.4905C15.8002 41.4898 16.8209 41.9882 17.8433 41.9882C19.2033 41.9882 20.5675 41.1004 21.8115 39.3427C23.0486 37.5947 24.1038 35.0672 24.8497 32.001L25.8328 32.2401C25.0688 35.3809 23.9728 38.0402 22.6373 39.9272C21.3087 41.8046 19.6788 43 17.8433 43C16.466 43 15.2005 42.3235 14.0991 41.1981C12.9994 40.0744 12.0323 38.4745 11.2309 36.5386C9.62718 32.6643 8.64709 27.3471 8.64709 21.5C8.64709 15.6529 9.62718 10.3357 11.2309 6.46143C12.0323 4.52546 12.9994 2.92558 14.0991 1.80187C15.2005 0.676476 16.466 3.5509e-08 17.8433 4.1764e-08C19.5542 4.95341e-08 21.0875 1.04012 22.3608 2.69759C23.6382 4.36035 24.7097 6.7105 25.503 9.50641L24.5297 9.78259C23.7572 7.06008 22.7315 4.84092 21.5585 3.31397C20.3814 1.78174 19.111 1.01176 17.8433 1.01176C16.8209 1.01176 15.8002 1.51021 14.8222 2.50954C13.8425 3.51055 12.937 4.98519 12.1657 6.8484Z" fill="#BABABA"/>
<path fill-rule="evenodd" clip-rule="evenodd" d="M24.3792 32.3655C26.6044 29.4345 28.3759 25.4071 28.3759 20.9939C28.3759 16.5807 26.6044 12.5534 24.3792 9.62235C23.2682 8.15904 22.063 6.99447 20.9457 6.20495C19.7984 5.3943 18.858 5.05864 18.2583 5.05864C17.7299 5.05864 17.1156 5.33063 16.4439 6.06266C15.7716 6.79545 15.1197 7.91176 14.5512 9.37658C13.4169 12.2997 12.6936 16.4068 12.6936 20.9939C12.6936 25.5811 13.4169 29.6881 14.5512 32.6113C15.1197 34.0761 15.7716 35.1924 16.4439 35.9252C17.1156 36.6572 17.7299 36.9292 18.2583 36.9292C18.858 36.9292 19.7984 36.5936 20.9457 35.7829C22.063 34.9934 23.2682 33.8288 24.3792 32.3655ZM18.2583 37.941C21.8903 37.941 29.3877 30.3535 29.3877 20.9939C29.3877 11.6343 21.8903 4.04688 18.2583 4.04688C14.6262 4.04688 11.6818 11.6343 11.6818 20.9939C11.6818 30.3535 14.6262 37.941 18.2583 37.941Z" fill="#BABABA"/>
<path fill-rule="evenodd" clip-rule="evenodd" d="M15.5934 9.91894C14.4342 12.7278 13.7055 16.6431 13.7055 20.9939C13.7055 25.3448 14.4342 29.2601 15.5934 32.0689C16.1735 33.4745 16.8514 34.5787 17.5783 35.3236C18.3036 36.067 19.046 36.4233 19.776 36.4233L19.776 37.4351C18.69 37.4351 17.7024 36.8996 16.8541 36.0302C16.0074 35.1624 15.2682 33.933 14.6582 32.4549C13.4371 29.4962 12.6937 25.4439 12.6937 20.9939C12.6937 16.5439 13.4371 12.4916 14.6582 9.53297C15.2682 8.05483 16.0074 6.82538 16.8541 5.9576C17.7024 5.08819 18.69 4.55273 19.776 4.55273L19.776 5.5645C19.046 5.5645 18.3036 5.92086 17.5783 6.66418C16.8514 7.40915 16.1735 8.51336 15.5934 9.91894Z" fill="#BABABA"/>
<path fill-rule="evenodd" clip-rule="evenodd" d="M3.53977 6.84668C2.01401 10.5713 1.05864 15.7518 1.05864 21.5C1.05864 27.2482 2.01401 32.4287 3.53977 36.1533C4.30315 38.0169 5.19936 39.4915 6.16864 40.4924C7.13646 41.4917 8.14475 41.9882 9.15276 41.9882L17.2469 41.9882L17.2469 43L9.15276 43C7.78594 43 6.53182 42.3217 5.44186 41.1962C4.35336 40.0723 3.39642 38.4725 2.60351 36.5368C1.01668 32.6631 0.0468751 27.3465 0.0468751 21.5C0.0468751 15.6535 1.01668 10.3369 2.60351 6.46315C3.39642 4.52752 4.35336 2.92767 5.44186 1.80376C6.53182 0.678345 7.78594 3.51465e-08 9.15276 4.13538e-08L17.2469 7.81128e-08L17.2469 1.01176L9.15276 1.01176C8.14475 1.01176 7.13646 1.50834 6.16864 2.50765C5.19936 3.50846 4.30315 4.98313 3.53977 6.84668Z" fill="#BABABA"/>
</svg>
