<svg width="64" height="30" viewBox="0 0 64 30" fill="none" xmlns="http://www.w3.org/2000/svg">
<path d="M12.1764 6.08813H54.7927V13.2831H12.1764V6.08813Z" fill="#C4C4C4" fill-opacity="0.5"/>
<path fill-rule="evenodd" clip-rule="evenodd" d="M53.6858 7.19505H13.2833V12.1762H53.6858V7.19505ZM12.1764 6.08813V13.2831H54.7927V6.08813H12.1764Z" fill="#BABABA"/>
<path fill-rule="evenodd" clip-rule="evenodd" d="M59.7739 13.2829H13.2833V14.9433H59.7739V13.2829ZM12.1764 12.176V16.0502H60.8808V12.176H12.1764Z" fill="#BABABA"/>
<path fill-rule="evenodd" clip-rule="evenodd" d="M59.2201 20.478H8.85057V19.3711H60.327V29.3334H0V19.9246H1.10692V28.2264H59.2201V20.478Z" fill="#BABABA"/>
<path fill-rule="evenodd" clip-rule="evenodd" d="M0 29.3333L-1.2822e-06 -8.07643e-05L9.96226 -8.11998e-05L9.96226 20.0522L8.85535 20.0522L8.85535 1.10684L1.10692 1.10684L1.10692 28.2263L9.40881 28.2263L9.40881 29.3333L0 29.3333Z" fill="#BABABA"/>
<path d="M0.55371 0.553366L0.553711 28.7798L9.40906 28.7798L59.7738 28.7798L59.7738 20.0522L9.40906 20.0522L9.40906 0.553365L0.55371 0.553366Z" fill="#C4C4C4" fill-opacity="0.5"/>
<path d="M0.553711 28.7799V0.553467H12.7298V6.64152H54.2392V12.7296H60.3273V15.4969H55.3462V19.9245H59.7738V28.7799H0.553711Z" fill="#C4C4C4" fill-opacity="0.3"/>
<path fill-rule="evenodd" clip-rule="evenodd" d="M63.0943 29.3332H0V28.2263H63.0943V29.3332Z" fill="#BABABA"/>
<path fill-rule="evenodd" clip-rule="evenodd" d="M24.3525 16.0503H16.604V19.371H24.3525V16.0503ZM15.4971 14.9434V20.478H25.4594V14.9434H15.4971Z" fill="#BABABA"/>
<path fill-rule="evenodd" clip-rule="evenodd" d="M39.2959 16.0503H31.5475V19.371H39.2959V16.0503ZM30.4406 14.9434V20.478H40.4028V14.9434H30.4406Z" fill="#BABABA"/>
<path fill-rule="evenodd" clip-rule="evenodd" d="M54.7922 16.0503H47.0437V19.371H54.7922V16.0503ZM45.9368 14.9434V20.478H55.8991V14.9434H45.9368Z" fill="#BABABA"/>
<path fill-rule="evenodd" clip-rule="evenodd" d="M12.1763 1.10692H9.96251V14.9434H12.1763V1.10692ZM8.85559 0V16.0503H13.2833V0H8.85559Z" fill="#BABABA"/>
</svg>
