<svg width="53" height="59" viewBox="0 0 53 59" fill="none" xmlns="http://www.w3.org/2000/svg">
<path fill-rule="evenodd" clip-rule="evenodd" d="M33.8609 2.56515H19.4957V55.4086H33.8609V2.56515ZM18.4696 1.53906V56.4347H34.887V1.53906H18.4696Z" fill="#BABABA"/>
<path fill-rule="evenodd" clip-rule="evenodd" d="M50.2783 2.56515H36.4261V55.4086H50.2783V2.56515ZM35.4 1.53906V56.4347H51.3043V1.53906H35.4Z" fill="#BABABA"/>
<path fill-rule="evenodd" clip-rule="evenodd" d="M16.9304 2.56515H2.56521V55.4086H16.9304V2.56515ZM1.53912 1.53906V56.4347H17.9565V1.53906H1.53912Z" fill="#BABABA"/>
<path fill-rule="evenodd" clip-rule="evenodd" d="M31.8087 4.6174H21.5478V53.3565H31.8087V4.6174ZM20.5217 3.59131V54.3826H32.8348V3.59131H20.5217Z" fill="#BABABA"/>
<path fill-rule="evenodd" clip-rule="evenodd" d="M48.2261 4.6174H38.4783V53.3565H48.2261V4.6174ZM37.4522 3.59131V54.3826H49.2522V3.59131H37.4522Z" fill="#BABABA"/>
<path fill-rule="evenodd" clip-rule="evenodd" d="M14.8783 4.6174H4.6174V53.3565H14.8783V4.6174ZM3.59131 3.59131V54.3826H15.9044V3.59131H3.59131Z" fill="#BABABA"/>
<path d="M0 0H52.8435V36.3677V59H19.6409H0V0Z" fill="#C4C4C4" fill-opacity="0.5"/>
<path fill-rule="evenodd" clip-rule="evenodd" d="M51.8174 1.02609H1.02609V57.9739H51.8174V1.02609ZM0 0V59H52.8435V0H0Z" fill="#BABABA"/>
</svg>
