<svg width="41" height="57" viewBox="0 0 41 57" fill="none" xmlns="http://www.w3.org/2000/svg">
<path d="M0.490997 42.7336V3.98078L6.78933 2.45508L10.1417 6.11677L11.5639 5.70991L17.659 13.0333V14.8645L34.563 34.1897V38.5937L35.8429 39.1737V48.9382L34.2176 49.6502V54.1256L28.0208 56.465L0.490997 42.7336Z" fill="#C4C4C4" fill-opacity="0.3"/>
<path fill-rule="evenodd" clip-rule="evenodd" d="M6.95563 1.90967L10.2987 5.56122L11.7365 5.1499L18.15 12.8558V14.6801L35.054 34.0053V38.2772L36.3339 38.8572V49.2592L34.7086 49.9712V54.4651L27.9936 57.0002L0 43.0375V3.59459L6.95563 1.90967ZM34.072 37.8323V34.3742L18.15 16.1717V18.8377L32.3721 35.227V37.0621L34.072 37.8323ZM32.3721 38.1402L34.072 38.9104V39.1582L32.3721 39.6325V38.1402ZM31.3901 36.6172V35.5937L18.15 20.336V30.6184L31.3901 36.6172ZM17.168 30.5895V19.2044L13.5467 15.0311L12.766 15.3113V32.1696L17.168 30.5895ZM13.5685 32.9249L29.6883 40.3814L31.3901 39.9065V37.6953L17.6376 31.4643L13.5685 32.9249ZM29.1552 41.2167L11.784 33.1814V15.1524L7.88985 10.766V36.6245L29.1552 46.6386V41.2167ZM28.3853 47.3615L6.90785 37.2475V10.1989L6.36606 10.4159V37.3359L28.0418 47.4905L28.3853 47.3615ZM27.5298 48.335L5.38406 37.9602V10.2693L0.981998 5.27957V42.4299L27.5298 55.6715V48.335ZM28.5118 55.7549L33.7266 53.7862V49.3293L35.3519 48.6173V39.8205L30.1372 41.2756V47.7527L28.5118 48.3629V55.7549ZM1.3977 4.26642L6.01408 9.49907L7.53681 8.88922L12.4217 14.3916L16.8329 12.8082L11.3912 6.27007L9.98465 6.67245L6.62304 3.00063L1.3977 4.26642ZM16.2908 14.0461L14.538 14.6753L17.168 17.706V15.049L16.2908 14.0461Z" fill="#BABABA"/>
<path d="M40.2619 9.57448C40.2619 14.8623 35.9753 19.149 30.6875 19.149C25.3996 19.149 21.113 14.8623 21.113 9.57448C21.113 4.28664 25.3996 0 30.6875 0C35.9753 0 40.2619 4.28664 40.2619 9.57448Z" fill="#BABABA"/>
<path d="M36.1475 12.2844L35.0457 11.6513L36.083 11.051C36.202 10.9816 36.2421 10.829 36.1728 10.71L35.9216 10.2794C35.8522 10.1604 35.6995 10.1202 35.5805 10.1896L34.0474 11.0778L33.3646 10.4694L34.8774 9.80253C34.9674 9.7626 35.0259 9.67324 35.0259 9.57438C35.0259 9.47553 34.9674 9.38617 34.8774 9.34624L33.3442 8.6703L34.0475 8.27208L35.5879 9.16899C35.7068 9.23839 35.8595 9.19821 35.9288 9.07925L36.1801 8.64858C36.2495 8.52963 36.2093 8.37697 36.0903 8.30756L35.045 7.69899L36.1475 7.06548C36.2671 6.99659 36.308 6.84411 36.239 6.72485L35.989 6.293C35.92 6.17374 35.7671 6.13288 35.6476 6.20174L34.5439 6.83586L34.5427 5.62699C34.5421 5.48929 34.43 5.37816 34.2923 5.37879L33.7936 5.38101C33.6559 5.38162 33.5448 5.49375 33.5454 5.63145L33.548 7.40811L32.7818 7.84184L32.7804 6.36067C32.7911 6.26205 32.7419 6.16635 32.6557 6.11742C32.569 6.06824 32.4619 6.07505 32.383 6.13472L31.2858 6.89409V5.87411L32.8342 4.98777C32.9537 4.91945 32.9953 4.76713 32.927 4.64759L32.6796 4.21468C32.6113 4.09512 32.459 4.05358 32.3394 4.12188L31.2859 4.7251V3.83968C31.2858 3.70195 31.1742 3.59033 31.0365 3.59033H30.7872H30.5378C30.4001 3.59033 30.2885 3.70197 30.2885 3.83968V4.72875L29.2349 4.12191C29.1153 4.05358 28.963 4.09512 28.8947 4.21468L28.6474 4.64759C28.579 4.76716 28.6206 4.91947 28.7401 4.98777L30.2885 5.87872V6.88902L29.202 6.14001C29.1577 6.10639 29.1046 6.08935 29.0516 6.08935C29.0477 6.08886 29.0442 6.08912 29.0418 6.08935C28.904 6.08935 28.7925 6.20087 28.7925 6.33869C28.7925 6.37231 28.7925 7.88284 28.7925 7.88284L28.0296 7.20888L28.0362 5.42162C28.0368 5.28391 27.9257 5.17178 27.788 5.17117L27.2894 5.16895C27.1517 5.16834 27.0396 5.27947 27.039 5.41715L27.0345 6.6371L25.9268 6.00062C25.8072 5.93178 25.6543 5.97262 25.5853 6.09188L25.3353 6.52373C25.2663 6.64299 25.3072 6.79549 25.4268 6.86436L26.5286 7.49743L25.4913 8.09773C25.3724 8.16713 25.3322 8.31979 25.4016 8.43875L25.6528 8.86941C25.7222 8.98837 25.8748 9.02853 25.9938 8.95915L27.5269 8.07101L28.2097 8.67935L26.697 9.34624C26.6069 9.38617 26.5484 9.47553 26.5484 9.57438C26.5484 9.67324 26.6069 9.7626 26.697 9.80253L28.2302 10.4785L27.5268 10.8767L25.9865 9.97978C25.8675 9.91038 25.7148 9.95056 25.6455 10.0695L25.3943 10.5002C25.3249 10.6192 25.3651 10.7718 25.484 10.8412L26.5294 11.4498L25.4268 12.0833C25.3072 12.1522 25.2663 12.3047 25.3353 12.4239L25.5853 12.8558C25.6543 12.9751 25.8072 13.0159 25.9268 12.9471L27.0304 12.3129L27.0316 13.5218C27.0322 13.6595 27.1444 13.7706 27.2821 13.77L27.7807 13.7678C27.9184 13.7672 28.0295 13.6551 28.0289 13.5174L28.0263 11.7407L28.7925 11.307L28.7939 12.7881C28.7832 12.8867 28.8324 12.9824 28.9186 13.0314C29.0053 13.0805 29.1124 13.0737 29.1913 13.0141L30.2885 12.2547V13.2747L28.7401 14.161C28.6206 14.2293 28.579 14.3816 28.6474 14.5012L28.8947 14.9341C28.963 15.0536 29.1153 15.0952 29.2349 15.0269L30.2885 14.4237V15.3091C30.2885 15.4468 30.4001 15.5584 30.5378 15.5584H30.7872H31.0365C31.1742 15.5584 31.2859 15.4468 31.2859 15.3091V14.42L32.3394 15.0269C32.459 15.0952 32.6113 15.0536 32.6796 14.9341L32.927 14.5012C32.9953 14.3816 32.9538 14.2293 32.8342 14.161L31.2858 13.27V12.2597L32.3723 13.0088C32.4166 13.0424 32.4697 13.0594 32.5228 13.0594C32.5267 13.0599 32.5301 13.0596 32.5325 13.0594C32.6703 13.0594 32.7819 12.9479 32.7819 12.8101C32.7819 12.7765 32.7819 11.2659 32.7819 11.2659L33.5447 11.9399L33.5381 13.7272C33.5375 13.8649 33.6487 13.977 33.7864 13.9776L34.2849 13.9798C34.4226 13.9804 34.5348 13.8693 34.5354 13.7316L34.5398 12.5116L35.6476 13.1481C35.7672 13.217 35.92 13.1761 35.9891 13.0569L36.239 12.625C36.308 12.5058 36.2671 12.3533 36.1475 12.2844Z" fill="white"/>
</svg>
