<svg width="44" height="61" viewBox="0 0 44 61" fill="none" xmlns="http://www.w3.org/2000/svg">
<path d="M0.0898438 0H43.3326V58.9674H0.0898438V0Z" fill="#C4C4C4" fill-opacity="0.5"/>
<path fill-rule="evenodd" clip-rule="evenodd" d="M42.459 0.873591H0.963435V58.0938H42.459V0.873591ZM0.0898438 0V58.9674H43.3326V0H0.0898438Z" fill="#BABABA"/>
<path fill-rule="evenodd" clip-rule="evenodd" d="M20.6195 2.62066H2.71087V55.0361H20.6195V2.62066ZM1.83728 1.74707V55.9097H21.4931V1.74707H1.83728Z" fill="#BABABA"/>
<path fill-rule="evenodd" clip-rule="evenodd" d="M17.124 7.86236H6.2041V47.6107H17.124V7.86236ZM5.33051 6.98877V48.4843H17.9976V6.98877H5.33051Z" fill="#BABABA"/>
<path fill-rule="evenodd" clip-rule="evenodd" d="M37.2163 7.86236H26.2964V47.6107H37.2163V7.86236ZM25.4229 6.98877V48.4843H38.0899V6.98877H25.4229Z" fill="#BABABA"/>
<path fill-rule="evenodd" clip-rule="evenodd" d="M40.7118 2.62066H22.8032V55.0361H40.7118V2.62066ZM21.9296 1.74707V55.9097H41.5854V1.74707H21.9296Z" fill="#BABABA"/>
<path d="M24.9878 27.5181C24.9878 28.0006 24.5967 28.3917 24.1142 28.3917C23.6317 28.3917 23.2406 28.0006 23.2406 27.5181C23.2406 27.0357 23.6317 26.6445 24.1142 26.6445C24.5967 26.6445 24.9878 27.0357 24.9878 27.5181Z" fill="#BABABA"/>
<path d="M20.1827 27.5181C20.1827 28.0006 19.7916 28.3917 19.3091 28.3917C18.8267 28.3917 18.4355 28.0006 18.4355 27.5181C18.4355 27.0357 18.8267 26.6445 19.3091 26.6445C19.7916 26.6445 20.1827 27.0357 20.1827 27.5181Z" fill="#BABABA"/>
<path d="M1.83728 58.9673H5.33164V60.2777H1.83728V58.9673Z" fill="#BABABA"/>
<path d="M38.0906 58.9673H41.5849V60.2777H38.0906V58.9673Z" fill="#BABABA"/>
</svg>
