<svg width="53" height="44" viewBox="0 0 53 44" fill="none" xmlns="http://www.w3.org/2000/svg">
<path d="M51.506 37.9816V41.9367V43.4579H46.6265L37.9518 39.1985H27.1084V43.4579H21.1446L13.0121 39.1985H1.08434V40.7197H1.62651V41.6324H0.542175V37.9816L11.1145 1.1687H20.0602L24.6687 3.29837H27.3325L27.3795 1.1687H35.3765L39.5783 2.68989L43.3735 2.99413V1.1687L51.506 37.9816Z" fill="#C4C4C4" fill-opacity="0.5"/>
<path fill-rule="evenodd" clip-rule="evenodd" d="M10.7061 0.626465H20.1795L24.7879 2.75613H26.8021L26.8492 0.626465H35.4716L39.6943 2.15522L42.8313 2.40669V1.16863L43.9029 1.05168L52.0482 37.9223V44H46.5006L37.8259 39.7406H27.6506V44H21.0112L12.8787 39.7406H1.62651V40.1775H2.16867V42.1745H0V37.9052L10.7061 0.626465ZM1.08434 38.6563H13.1454L21.278 42.9156H26.5663V42.4788H21.0159L13.1544 38.5237H1.08434V38.6563ZM1.26196 37.4393H12.8317L19.4092 1.7108H11.5228L1.26196 37.4393ZM20.467 1.95385L24.094 3.63L20.677 41.0944L13.8899 37.6799L20.467 1.95385ZM21.7384 41.3944H26.0241V37.9755L26.7782 3.84047H25.1636L21.7384 41.3944ZM27.1084 38.6563H38.0777L46.7524 42.9156H50.9639V42.4788H46.5053L38.1017 38.5237H27.1084V38.6563ZM27.1205 37.4393H37.6372L34.8746 1.7108H27.9098L27.1205 37.4393ZM35.9818 1.96438L39.0999 3.09324L45.9073 40.9989L38.7391 37.6252L35.9818 1.96438ZM47.08 41.3944H50.8389L42.9257 3.50208L40.2363 3.28648L47.08 41.3944Z" fill="#BABABA"/>
</svg>
