<svg width="34" height="35" viewBox="0 0 34 35" fill="none" xmlns="http://www.w3.org/2000/svg">
<path d="M0 0H33.9855V33.9855H0V0Z" fill="#C4C4C4" fill-opacity="0.5"/>
<path fill-rule="evenodd" clip-rule="evenodd" d="M32.971 1.01449H1.01449V32.971H32.971V1.01449ZM0 0V33.9855H33.9855V0H0Z" fill="#BABABA"/>
<path fill-rule="evenodd" clip-rule="evenodd" d="M30.9421 17.7535H3.04351V28.4057H30.9421V17.7535ZM2.02902 16.739V29.4202H31.9566V16.739H2.02902Z" fill="#BABABA"/>
<path fill-rule="evenodd" clip-rule="evenodd" d="M30.9421 4.05795H3.04351V14.7101H30.9421V4.05795ZM2.02902 3.04346V15.7246H31.9566V3.04346H2.02902Z" fill="#BABABA"/>
<path fill-rule="evenodd" clip-rule="evenodd" d="M20.2902 6.59433H14.2032V5.57983H20.2902V6.59433Z" fill="#BABABA"/>
<path fill-rule="evenodd" clip-rule="evenodd" d="M20.2902 20.2899H14.2032V19.2754H20.2902V20.2899Z" fill="#BABABA"/>
<path d="M2.02902 33.9856H6.59424V35.0001H2.02902V33.9856Z" fill="#BABABA"/>
<path d="M27.3914 33.9856H31.9566V35.0001H27.3914V33.9856Z" fill="#BABABA"/>
</svg>
