<svg width="64" height="30" viewBox="0 0 64 30" fill="none" xmlns="http://www.w3.org/2000/svg">
<path d="M12.1764 8.85547H54.7927V13.2831H12.1764V8.85547Z" fill="#C4C4C4" fill-opacity="0.5"/>
<path fill-rule="evenodd" clip-rule="evenodd" d="M53.6858 9.96239H13.2833V12.1762H53.6858V9.96239ZM12.1764 8.85547V13.2831H54.7927V8.85547H12.1764Z" fill="#BABABA"/>
<path fill-rule="evenodd" clip-rule="evenodd" d="M59.7738 13.2829H13.2833V14.9433H59.7738V13.2829ZM12.1764 12.176V16.0502H60.8808V12.176H12.1764Z" fill="#BABABA"/>
<path fill-rule="evenodd" clip-rule="evenodd" d="M59.2201 27.6731H1.65561V26.5662H60.327V29.3335H0V27.1196H1.10692V28.2265H59.2201V27.6731Z" fill="#BABABA"/>
<path d="M0.553741 28.2264V0H12.7298V9.4088H54.2393V12.1761H60.3273V14.9434H55.3462V19.3711V26.8428L59.7739 27.1195V28.2264H0.553741Z" fill="#C4C4C4" fill-opacity="0.3"/>
<path fill-rule="evenodd" clip-rule="evenodd" d="M0 29.3333L-1.2822e-06 -8.07643e-05L2.7673 -8.08853e-05L2.7673 27.2471L1.66038 27.2471L1.66038 1.10684L1.10692 1.10684L1.10692 28.2263L2.21384 28.2263L2.21384 29.3333L0 29.3333Z" fill="#BABABA"/>
<path fill-rule="evenodd" clip-rule="evenodd" d="M63.0943 29.3332H0V28.2263H63.0943V29.3332Z" fill="#BABABA"/>
<path fill-rule="evenodd" clip-rule="evenodd" d="M24.3525 16.0503H16.604V26.566H24.3525V16.0503ZM15.4971 14.9434V27.6729H25.4594V14.9434H15.4971Z" fill="#BABABA"/>
<path fill-rule="evenodd" clip-rule="evenodd" d="M39.2959 16.0503H31.5474V26.566H39.2959V16.0503ZM30.4405 14.9434V27.6729H40.4028V14.9434H30.4405Z" fill="#BABABA"/>
<path fill-rule="evenodd" clip-rule="evenodd" d="M54.2393 16.0503H46.4908V26.566H54.2393V16.0503ZM45.3839 14.9434V27.6729H55.3462V14.9434H45.3839Z" fill="#BABABA"/>
<path fill-rule="evenodd" clip-rule="evenodd" d="M12.1764 1.10692H9.96254V14.9434H12.1764V1.10692ZM8.85562 0V16.0503H13.2833V0H8.85562Z" fill="#BABABA"/>
</svg>
