<svg width="45" height="62" viewBox="0 0 45 62" fill="none" xmlns="http://www.w3.org/2000/svg">
<path d="M0 0H44.4783V60.6522H0V0Z" fill="#C4C4C4" fill-opacity="0.5"/>
<path fill-rule="evenodd" clip-rule="evenodd" d="M43.5797 0.898551H0.898551V59.7536H43.5797V0.898551ZM0 0V60.6522H44.4783V0H0Z" fill="#BABABA"/>
<path fill-rule="evenodd" clip-rule="evenodd" d="M39.9855 4.49279H32.3478V3.59424H40.884V55.2609H32.3478V54.3624H39.9855V4.49279Z" fill="#BABABA"/>
<path fill-rule="evenodd" clip-rule="evenodd" d="M42.232 2.69567H22.4638V1.79712H43.1305V57.5073H22.4638V56.6087H42.232V2.69567Z" fill="#BABABA"/>
<path fill-rule="evenodd" clip-rule="evenodd" d="M2.69572 2.69567H22.4638V1.79712H1.79717V57.5073H22.4638V56.6087H2.69572V2.69567Z" fill="#BABABA"/>
<path fill-rule="evenodd" clip-rule="evenodd" d="M31.8988 2.69567H13.4785V56.6087H31.8988V2.69567ZM12.5799 1.79712V57.5073H32.7973V1.79712H12.5799Z" fill="#BABABA"/>
<path fill-rule="evenodd" clip-rule="evenodd" d="M29.653 4.49279H15.7255V54.3624H29.653V4.49279ZM14.8269 3.59424V55.2609H30.5515V3.59424H14.8269Z" fill="#BABABA"/>
<path fill-rule="evenodd" clip-rule="evenodd" d="M12.8039 46.7247H2.24597V45.8262H12.8039V46.7247Z" fill="#BABABA"/>
<path fill-rule="evenodd" clip-rule="evenodd" d="M12.8039 39.087H2.24597V38.1885H12.8039V39.087Z" fill="#BABABA"/>
<path fill-rule="evenodd" clip-rule="evenodd" d="M12.8039 10.3334H2.24597V9.43481H12.8039V10.3334Z" fill="#BABABA"/>
<path d="M2.24597 60.6521H5.84017V61.9999H2.24597V60.6521Z" fill="#BABABA"/>
<path d="M39.5367 60.6521H43.1309V61.9999H39.5367V60.6521Z" fill="#BABABA"/>
</svg>
