<svg width="42" height="57" viewBox="0 0 42 57" fill="none" xmlns="http://www.w3.org/2000/svg">
<path d="M1.36017 42.7336V3.98078L7.6585 2.45508L11.0108 6.11677L12.433 5.70991L18.5282 13.0333V14.8645L35.4321 34.1897V38.5937L36.7121 39.1737V48.9382L35.0867 49.6502V54.1256L28.89 56.465L1.36017 42.7336Z" fill="#C4C4C4" fill-opacity="0.5"/>
<path fill-rule="evenodd" clip-rule="evenodd" d="M7.82477 1.90967L11.1678 5.56122L12.6057 5.1499L19.0192 12.8558V14.6801L35.9231 34.0053V38.2772L37.2031 38.8572V49.2592L35.5777 49.9712V54.4651L28.8627 57.0002L0.869141 43.0375V3.59459L7.82477 1.90967ZM34.9411 37.8323V34.3742L19.0192 16.1717V18.8377L33.2412 35.227V37.0621L34.9411 37.8323ZM33.2412 38.1402L34.9411 38.9104V39.1582L33.2412 39.6325V38.1402ZM32.2592 36.6172V35.5937L19.0192 20.336V30.6184L32.2592 36.6172ZM18.0372 30.5895V19.2044L14.4158 15.0311L13.6351 15.3113V32.1696L18.0372 30.5895ZM14.4377 32.9249L30.5574 40.3814L32.2592 39.9065V37.6953L18.5068 31.4643L14.4377 32.9249ZM30.0243 41.2167L12.6531 33.1814V15.1524L8.75899 10.766V36.6245L30.0243 46.6386V41.2167ZM29.2544 47.3615L7.77699 37.2475V10.1989L7.2352 10.4159V37.3359L28.911 47.4905L29.2544 47.3615ZM28.399 48.335L6.2532 37.9602V10.2693L1.85114 5.27957V42.4299L28.399 55.6715V48.335ZM29.3809 55.7549L34.5957 53.7862V49.3293L36.2211 48.6173V39.8205L31.0063 41.2756V47.7527L29.3809 48.3629V55.7549ZM2.26684 4.26642L6.88322 9.49907L8.40595 8.88922L13.2908 14.3916L17.702 12.8082L12.2604 6.27007L10.8538 6.67245L7.49218 3.00063L2.26684 4.26642ZM17.16 14.0461L15.4072 14.6753L18.0372 17.706V15.049L17.16 14.0461Z" fill="#BABABA"/>
<path d="M41.1311 9.57448C41.1311 14.8623 36.8444 19.149 31.5566 19.149C26.2688 19.149 21.9821 14.8623 21.9821 9.57448C21.9821 4.28664 26.2688 0 31.5566 0C36.8444 0 41.1311 4.28664 41.1311 9.57448Z" fill="#BABABA"/>
<g clip-path="url(#clip0)">
<path d="M31.5568 6.5C29.8615 6.5 28.4824 7.87944 28.4824 9.57472C28.4824 11.27 29.8615 12.6494 31.5568 12.6494C33.2518 12.6494 34.6313 11.2703 34.6313 9.57472C34.6313 7.87917 33.2518 6.5 31.5568 6.5Z" fill="white"/>
<path d="M31.5565 5.59628C31.2252 5.59628 30.9566 5.32773 30.9566 4.99666V4.0369C30.9566 3.70556 31.2252 3.43701 31.5565 3.43701C31.8878 3.43701 32.1564 3.70556 32.1564 4.0369V4.99666C32.1564 5.32773 31.8876 5.59628 31.5565 5.59628Z" fill="white"/>
<path d="M31.5565 13.5522C31.2252 13.5522 30.9566 13.8208 30.9566 14.1521V15.1116C30.9566 15.4432 31.2252 15.7118 31.5565 15.7118C31.8878 15.7118 32.1564 15.4432 32.1564 15.1116V14.1521C32.1564 13.8208 31.8876 13.5522 31.5565 13.5522Z" fill="white"/>
<path d="M34.3692 6.76164C34.1352 6.52734 34.1352 6.14762 34.3692 5.91332L35.048 5.2346C35.282 5.00057 35.662 5.00057 35.8963 5.2346C36.1306 5.4689 36.1306 5.8489 35.8963 6.08293L35.2176 6.76164C34.9835 6.99594 34.6038 6.99594 34.3692 6.76164Z" fill="white"/>
<path d="M28.7439 12.3878C28.5096 12.1533 28.1298 12.1533 27.8955 12.3878L27.2168 13.0663C26.9828 13.3003 26.9825 13.6806 27.2168 13.9146C27.4511 14.1486 27.8311 14.1486 28.0651 13.9146L28.7439 13.2356C28.9782 13.0016 28.9782 12.6216 28.7439 12.3878Z" fill="white"/>
<path d="M35.5347 9.5745C35.5347 9.24316 35.8032 8.97461 36.1346 8.97461H37.0943C37.4257 8.97461 37.6942 9.24316 37.6942 9.5745C37.6942 9.90583 37.4257 10.1741 37.0943 10.1741H36.1346C35.8032 10.1741 35.5347 9.90583 35.5347 9.5745Z" fill="white"/>
<path d="M27.5783 9.5745C27.5783 9.24316 27.3098 8.97461 26.9784 8.97461H26.019C25.6876 8.97461 25.4191 9.24316 25.4191 9.5745C25.4191 9.90583 25.6876 10.1741 26.019 10.1741H26.9787C27.3098 10.1741 27.5783 9.90583 27.5783 9.5745Z" fill="white"/>
<path d="M34.3691 12.3879C34.6034 12.1539 34.9834 12.1539 35.2175 12.3879L35.8962 13.0666C36.1305 13.3004 36.1305 13.6807 35.8962 13.9147C35.6619 14.1487 35.2822 14.1487 35.0479 13.9147L34.3691 13.236C34.1348 13.0017 34.1348 12.622 34.3691 12.3879Z" fill="white"/>
<path d="M28.7436 6.76157C28.9779 6.52727 28.9779 6.14755 28.7436 5.91325L28.0649 5.23481C27.8306 5.00051 27.4509 5.00051 27.2166 5.23481C26.9823 5.46884 26.9823 5.84883 27.2166 6.08286L27.8953 6.76157C28.1296 6.99614 28.5093 6.99614 28.7436 6.76157Z" fill="white"/>
</g>
<defs>
<clipPath id="clip0">
<rect width="12.275" height="12.275" fill="white" transform="translate(25.4191 3.43701)"/>
</clipPath>
</defs>
</svg>
