<svg width="43" height="37" viewBox="0 0 43 37" fill="none" xmlns="http://www.w3.org/2000/svg">
<path d="M21.5 0.5C9.90202 0.5 0.5 5.31294 0.5 11.25V15.25C0.75 18.6667 5.3 25.5 21.5 25.5C37.7 25.5 42.25 19.1667 42.5 16V11.25C42.5 5.31294 33.098 0.5 21.5 0.5Z" fill="#C4C4C4" fill-opacity="0.5"/>
<path fill-rule="evenodd" clip-rule="evenodd" d="M6.87859 4.09368C3.13576 6.00965 1 8.56671 1 11.25V15.25H0V11.25C0 7.99623 2.56525 5.17829 6.42292 3.20353C10.3073 1.21512 15.6386 0 21.5 0C27.3614 0 32.6927 1.21512 36.5771 3.20353C40.4347 5.17829 43 7.99623 43 11.25V16H42V11.25C42 8.56671 39.8642 6.00965 36.1214 4.09368C32.4052 2.19135 27.2365 1 21.5 1C15.7635 1 10.5948 2.19135 6.87859 4.09368Z" fill="#BABABA"/>
<path fill-rule="evenodd" clip-rule="evenodd" d="M36.2556 21.957C40.04 20.0648 42 17.6357 42 15.25C42 12.8643 40.04 10.4352 36.2556 8.54303C32.531 6.68072 27.3155 5.5 21.5 5.5C15.6845 5.5 10.469 6.68072 6.74442 8.54303C2.95999 10.4352 1 12.8643 1 15.25C1 17.6357 2.95999 20.0648 6.74442 21.957C10.469 23.8193 15.6845 25 21.5 25C27.3155 25 32.531 23.8193 36.2556 21.957ZM21.5 26C33.3741 26 43 21.1871 43 15.25C43 9.31294 33.3741 4.5 21.5 4.5C9.62588 4.5 0 9.31294 0 15.25C0 21.1871 9.62588 26 21.5 26Z" fill="#BABABA"/>
<path fill-rule="evenodd" clip-rule="evenodd" d="M31.6594 19.9089C34.2675 18.6048 35.5 16.9882 35.5 15.5C35.5 14.0118 34.2675 12.3952 31.6594 11.0911C29.111 9.81695 25.5206 9 21.5 9C17.4794 9 13.889 9.81695 11.3406 11.0911C8.73245 12.3952 7.5 14.0118 7.5 15.5C7.5 16.9882 8.73245 18.6048 11.3406 19.9089C13.889 21.183 17.4794 22 21.5 22C25.5206 22 29.111 21.183 31.6594 19.9089ZM21.5 23C29.7843 23 36.5 19.6421 36.5 15.5C36.5 11.3579 29.7843 8 21.5 8C13.2157 8 6.5 11.3579 6.5 15.5C6.5 19.6421 13.2157 23 21.5 23Z" fill="#BABABA"/>
<path fill-rule="evenodd" clip-rule="evenodd" d="M12.7788 19.125C15.2379 19.9887 18.2451 20.4999 21.5002 20.4999C24.7553 20.4999 27.7625 19.9887 30.2216 19.125C32.6903 18.258 34.5628 17.0519 35.6035 15.6956L36.3969 16.3043C35.1933 17.8729 33.1207 19.1668 30.553 20.0685C27.9757 20.9737 24.855 21.4999 21.5002 21.4999C18.1454 21.4999 15.0247 20.9737 12.4474 20.0685C9.87967 19.1668 7.80709 17.8729 6.60352 16.3043L7.39688 15.6956C8.43761 17.0519 10.3101 18.258 12.7788 19.125Z" fill="#BABABA"/>
<path fill-rule="evenodd" clip-rule="evenodd" d="M21.5 29.5C21.7761 29.5 22 29.7239 22 30L22 36.5C22 36.7761 21.7761 37 21.5 37C21.2239 37 21 36.7761 21 36.5L21 30C21 29.7239 21.2239 29.5 21.5 29.5Z" fill="#BABABA"/>
<path fill-rule="evenodd" clip-rule="evenodd" d="M28.9542 28.7906C29.2049 28.6749 29.502 28.7843 29.6177 29.035L32.1987 34.6271C32.3144 34.8778 32.2049 35.1749 31.9542 35.2906C31.7035 35.4063 31.4064 35.2969 31.2907 35.0461L28.7098 29.4541C28.5941 29.2034 28.7035 28.9063 28.9542 28.7906Z" fill="#BABABA"/>
<path fill-rule="evenodd" clip-rule="evenodd" d="M35.3949 26.693C35.6128 26.5234 35.927 26.5627 36.0965 26.7807L38.9826 30.4913C39.1521 30.7093 39.1128 31.0234 38.8949 31.193C38.6769 31.3625 38.3628 31.3232 38.1932 31.1053L35.3072 27.3946C35.1376 27.1766 35.1769 26.8625 35.3949 26.693Z" fill="#BABABA"/>
<path fill-rule="evenodd" clip-rule="evenodd" d="M6.60513 26.693C6.38715 26.5234 6.07301 26.5627 5.90348 26.7807L3.01742 30.4913C2.84788 30.7093 2.88715 31.0234 3.10513 31.193C3.3231 31.3625 3.63724 31.3232 3.80677 31.1053L6.69283 27.3946C6.86237 27.1766 6.8231 26.8625 6.60513 26.693Z" fill="#BABABA"/>
<path fill-rule="evenodd" clip-rule="evenodd" d="M14.0458 28.7906C13.7951 28.6749 13.498 28.7843 13.3823 29.035L10.8013 34.6271C10.6856 34.8778 10.7951 35.1749 11.0458 35.2906C11.2965 35.4063 11.5936 35.2969 11.7093 35.0461L14.2902 29.4541C14.4059 29.2034 14.2965 28.9063 14.0458 28.7906Z" fill="#BABABA"/>
</svg>
