<svg width="59" height="45" viewBox="0 0 59 45" fill="none" xmlns="http://www.w3.org/2000/svg">
<path d="M42.6868 2.45161L58.0121 43.0259V44.4579H45.0813L39.8133 38.7298H19.6988L13.9518 44.4579H0.542175V43.0259L17.7831 2.45161H24.9669L26.8825 0.542236H34.0663L36.4609 2.45161H42.6868Z" fill="#C4C4C4" fill-opacity="0.5"/>
<path fill-rule="evenodd" clip-rule="evenodd" d="M26.6585 0H34.256L36.6505 1.90938H43.0615L58.5542 42.9268V45H44.8434L39.5753 39.2719H19.9228L14.1759 45H0V42.9154L17.4244 1.90938H24.7428L26.6585 0ZM24.2579 2.99371H18.1418L1.36164 42.4836H13.5372L24.2579 2.99371ZM15.0069 41.2087L19.1985 37.0308L26.0106 2.17668L25.4522 2.73333L15.0069 41.2087ZM27.329 1.08434L20.3572 36.7555H39.1797L33.6023 1.08434H27.329ZM34.817 1.83425L35.9709 2.7543L44.1393 41.2005L40.3235 37.0516L34.817 1.83425ZM39.5753 37.8398H19.9228L19.574 38.1875H39.8951L39.5753 37.8398ZM44.9995 43.568L45.3193 43.9157H57.4699V43.568H44.9995ZM57.2277 42.4836H45.5204L37.1303 2.99371H42.312L57.2277 42.4836ZM14.0766 43.568H1.08434V43.9157H13.7278L14.0766 43.568Z" fill="#BABABA"/>
</svg>
