<svg width="41" height="40" viewBox="0 0 41 40" fill="none" xmlns="http://www.w3.org/2000/svg">
<g clip-path="url(#clip0)">
<rect x="0.866699" y="7" width="39.1828" height="32" fill="white"/>
<ellipse cx="20.2569" cy="2.53353" rx="1.35066" ry="1.33333" fill="white"/>
<path d="M20.2185 15.2529H8.48438C8.15647 15.2529 7.89062 15.5153 7.89062 15.8389C7.89062 16.1625 8.15647 16.4248 8.48438 16.4248H20.2185C20.5464 16.4248 20.8122 16.1625 20.8122 15.8389C20.8122 15.5152 20.5464 15.2529 20.2185 15.2529Z" fill="#8D90C4"/>
<path d="M17.0363 18.2754H8.48438C8.15647 18.2754 7.89062 18.5377 7.89062 18.8613C7.89062 19.1849 8.15647 19.4473 8.48438 19.4473H17.0363C17.3642 19.4473 17.6301 19.1849 17.6301 18.8613C17.6301 18.5377 17.3642 18.2754 17.0363 18.2754Z" fill="#8D90C4"/>
<path d="M17.0363 21.2979H8.48438C8.15647 21.2979 7.89062 21.5602 7.89062 21.8838C7.89062 22.2074 8.15647 22.4697 8.48438 22.4697H17.0363C17.3642 22.4697 17.6301 22.2074 17.6301 21.8838C17.6301 21.5601 17.3642 21.2979 17.0363 21.2979Z" fill="#8D90C4"/>
<path d="M17.0364 29.1162H8.48438C8.15647 29.1162 7.89062 29.3786 7.89062 29.7021C7.89062 30.0257 8.15647 30.2881 8.48438 30.2881H17.0363C17.3642 30.2881 17.6301 30.0257 17.6301 29.7021C17.6301 29.3785 17.3643 29.1162 17.0364 29.1162Z" fill="#8D90C4"/>
<path d="M40.47 6.5657C40.3729 6.49805 40.2505 6.46063 40.1316 6.46063H24.9736L22.0869 3.6118C22.2553 3.31086 22.3515 2.96531 22.3515 2.59789C22.3515 1.43789 21.3952 0.494141 20.2197 0.494141C19.0442 0.494141 18.0879 1.43789 18.0879 2.59789C18.0879 2.96531 18.1841 3.31086 18.3526 3.6118L15.4657 6.46063H9.3406C9.01269 6.46063 8.74684 6.72297 8.74684 7.04656C8.74684 7.37016 9.01269 7.6325 9.3406 7.6325H38.7583L35.432 11.1236C35.3707 11.103 5.45504 11.0925 5.45504 11.0925L2.15849 7.6325H6.96556C7.29348 7.6325 7.55932 7.37016 7.55932 7.04656C7.55932 6.72297 7.29348 6.46063 6.96556 6.46063C6.96556 6.46063 0.791261 6.46063 0.785165 6.46063C0.463823 6.46063 0.191406 6.72945 0.191406 7.04656C0.191406 7.04656 0.191406 38.9098 0.191406 38.9198C0.191406 39.1455 0.333275 39.3582 0.540299 39.4523C0.617092 39.4873 0.700535 39.5057 0.785165 39.5057H29.8714C30.1994 39.5057 30.4652 39.2434 30.4652 38.9198C30.4652 38.5962 30.1994 38.3338 29.8714 38.3338H2.15849L5.45512 34.8739H35.2411C35.3062 34.8739 35.3707 34.8634 35.432 34.8428L38.7583 38.3339H32.2465C31.9186 38.3339 31.6527 38.5963 31.6527 38.9198C31.6527 39.2434 31.9186 39.5058 32.2465 39.5058C32.2465 39.5058 40.1314 39.5058 40.1318 39.5058C40.4422 39.5058 40.7128 39.248 40.725 38.942C40.7252 38.9345 40.7254 7.04789 40.7254 7.04664C40.7254 6.85789 40.6258 6.67422 40.47 6.5657ZM20.2197 1.66602C20.7404 1.66602 21.164 2.08406 21.164 2.59789C21.164 3.11172 20.7404 3.52969 20.2197 3.52969C19.699 3.52969 19.2755 3.11164 19.2755 2.59789C19.2755 2.08414 19.6991 1.66602 20.2197 1.66602ZM17.1451 6.46055L19.1922 4.44039C19.4972 4.60664 19.8474 4.70156 20.2197 4.70156C20.592 4.70156 20.9422 4.60664 21.2471 4.44039L23.2943 6.46055H17.1451ZM4.6047 34.0558L1.37892 37.4412V8.52516L4.6047 11.9106V34.0558ZM35.1246 33.6947L35.1088 33.702H5.79222V12.2644H35.0978L35.1246 12.2779V33.6947ZM39.5378 37.4412L36.3121 34.0557V11.9197V11.9105L39.5378 8.52516V37.4412Z" fill="#8D90C4"/>
<path d="M33.8753 31.0098L31.3515 23.4671C32.1621 23.1205 32.6626 22.2789 32.5332 21.3757C32.4976 21.1273 32.5786 20.8814 32.7554 20.7011C33.5119 19.9294 33.5119 18.7203 32.7554 17.9485C32.5786 17.7682 32.4977 17.5223 32.5333 17.2739C32.6856 16.2107 31.9655 15.2326 30.8937 15.047C30.6433 15.0037 30.4314 14.8517 30.3122 14.6301C29.9633 13.9812 29.284 13.5781 28.5393 13.5781C28.2324 13.5781 27.9363 13.6459 27.6593 13.7795C27.4368 13.8869 27.1631 13.8869 26.9406 13.7795C26.6635 13.6459 26.3675 13.5781 26.0606 13.5781C25.3159 13.5781 24.6366 13.9812 24.2877 14.6301C24.1686 14.8517 23.9566 15.0037 23.7061 15.047C22.6345 15.2326 21.9143 16.2108 22.0667 17.2739C22.1023 17.5223 22.0213 17.7682 21.8445 17.9485C21.088 18.7203 21.088 19.9294 21.8445 20.7011C22.0214 20.8814 22.1023 21.1273 22.0667 21.3757C21.9372 22.2789 22.4377 23.1205 23.2483 23.4671C23.2483 23.4671 20.7301 30.9933 20.7246 31.0098C20.5693 31.4741 21.0498 31.9194 21.5093 31.7374L23.5727 30.9212C23.5727 30.9212 24.736 32.7864 24.7378 32.7894C24.9979 33.2065 25.6522 33.1295 25.8073 32.6659L27.2999 28.2048C27.2999 28.2048 28.789 32.6555 28.7925 32.6659C28.9475 33.129 29.6031 33.2045 29.862 32.7894L31.0271 30.9212C31.0271 30.9212 33.086 31.7356 33.0905 31.7374C33.5492 31.9189 34.0297 31.4716 33.8753 31.0098ZM25.0799 31.1023C25.0799 31.1023 24.322 29.887 24.3218 29.8866C24.1724 29.6472 23.8594 29.5453 23.5952 29.6499L22.2525 30.1811L24.304 24.0495C24.313 24.0655 24.323 24.0806 24.3324 24.0963C24.4658 24.3201 24.6403 24.5192 24.8531 24.673C25.2039 24.9267 25.625 25.0717 26.0607 25.0716C26.3675 25.0716 26.6636 25.0039 26.9406 24.8702C27.0186 24.8326 27.1034 24.8088 27.1894 24.7977L25.0799 31.1023ZM26.4327 23.8111C26.4282 23.8132 26.4235 23.8151 26.419 23.8172C26.0271 24.0063 25.5411 23.8502 25.3368 23.4702C25.0484 22.9341 24.5171 22.553 23.9114 22.4482C23.4742 22.3725 23.1804 21.9734 23.2425 21.5397C23.3298 20.9309 23.1314 20.3281 22.6981 19.8862C22.3894 19.5716 22.3894 19.0783 22.6981 18.7634C23.1314 18.3214 23.3298 17.7187 23.2425 17.1098C23.1804 16.6761 23.4742 16.277 23.9114 16.2013C24.5251 16.0952 25.0446 15.7227 25.3367 15.1794C25.5405 14.8003 26.0294 14.6445 26.4191 14.8323C26.9645 15.0954 27.6352 15.0955 28.1809 14.8323C28.5649 14.6471 29.0564 14.7948 29.2631 15.1793C29.5551 15.7225 30.0746 16.095 30.6884 16.2013C31.1257 16.277 31.4195 16.676 31.3573 17.1098C31.2701 17.7187 31.4685 18.3213 31.9018 18.7633C32.2104 19.0781 32.2104 19.5714 31.9018 19.8863C31.4685 20.3282 31.2701 20.9309 31.3573 21.5398C31.4195 21.9735 31.1257 22.3727 30.6884 22.4483C30.2065 22.5317 29.7834 22.7798 29.4822 23.1452C29.4785 23.1496 29.4747 23.154 29.4712 23.1584C29.3644 23.2895 29.2956 23.4423 29.1941 23.5759C28.8944 23.9708 28.4607 23.9238 28.0508 23.7608C27.5311 23.5541 26.9383 23.5719 26.4327 23.8111ZM31.0047 29.6498C30.7365 29.5437 30.4296 29.6436 30.2781 29.8866L29.5199 31.1022L27.9252 26.3359L28.3512 25.0628C28.3574 25.0634 28.3637 25.0631 28.3698 25.0637C28.8278 25.1019 29.2923 24.9809 29.6724 24.7257C29.9302 24.5526 30.1451 24.3186 30.2958 24.0493L32.3474 30.1809L31.0047 29.6498Z" fill="#8D90C4"/>
</g>
<defs>
<clipPath id="clip0">
<rect width="40.5339" height="40" fill="white" transform="translate(0.191406)"/>
</clipPath>
</defs>
</svg>
