<svg width="41" height="40" viewBox="0 0 41 40" fill="none" xmlns="http://www.w3.org/2000/svg">
<g clip-path="url(#clip0)">
<path d="M1.54248 30.0002V38.6668H26.5384L27.214 35.0002L26.5384 29.0002L22.8228 26.0002L20.7961 25.3335L17.0805 25.6668V23.3335L18.7694 21.6668L20.1205 19.3335L21.8095 18.6668L22.1472 17.0002L21.8095 16.0002L22.1472 14.3335L20.1205 9.3335L17.0805 7.00016L12.6893 6.3335L9.98705 7.66683L7.62257 10.0002L6.60922 13.0002V16.3335L5.59588 18.0002L6.60922 19.0002L8.29814 19.3335L9.31149 21.6668L11.0004 23.3335V25.6668H9.98705L6.27144 26.0002L3.2314 27.0002L1.54248 30.0002Z" fill="white"/>
<rect x="25.8628" y="12" width="2.026" height="3.33333" fill="white"/>
<rect x="30.5933" y="10.0005" width="2.026" height="5.33333" fill="white"/>
<rect x="35.9963" y="6.66699" width="2.026" height="8.66667" fill="white"/>
<path d="M28.2439 17.6831L20.8294 25H17.9248V23.75H17.9084C19.1295 22.8481 20.0149 21.5269 20.3303 20H20.4582C21.8554 20 22.9916 18.8787 22.9916 17.5C22.9916 16.8713 22.7477 16.3031 22.3582 15.8638V13.75C22.3582 9.27 18.6646 5.625 14.1248 5.625C9.58498 5.625 5.89133 9.27 5.89133 13.75V15.8638C5.50182 16.3031 5.25799 16.8713 5.25799 17.5C5.25799 18.8787 6.3942 20 7.79136 20H7.91929C8.2347 21.5269 9.12011 22.8481 10.3412 23.75H10.3247V25H7.15801C3.66576 25 0.824585 27.8037 0.824585 31.25V38.75C0.824585 39.0956 1.10769 39.375 1.45793 39.375H26.7916C27.1419 39.375 27.425 39.0956 27.425 38.75V31.25C27.425 28.27 25.2989 25.7744 22.4659 25.1525L28.9539 18.75H40.0918V17.5H28.6917C28.5232 17.5 28.3623 17.5656 28.2439 17.6831ZM10.661 26.25L13.126 29.1687L10.6946 30.3681L9.30315 26.25H10.661ZM14.0108 33.125H14.2394L15.2528 38.125H12.9974L14.0108 33.125ZM14.3667 31.875H13.8828L13.2014 30.5294L14.1248 30.0737L15.0482 30.5294L14.3667 31.875ZM15.1236 29.1687L17.5885 26.25H18.9464L17.555 30.3687L15.1236 29.1687ZM20.4582 18.75V16.25C21.1568 16.25 21.7249 16.8106 21.7249 17.5C21.7249 18.1894 21.1568 18.75 20.4582 18.75ZM6.52467 17.5C6.52467 16.8106 7.09278 16.25 7.79136 16.25V18.75C7.09278 18.75 6.52467 18.1894 6.52467 17.5ZM7.79136 15C7.57159 15 7.36195 15.0363 7.15801 15.0887V13.75C7.15801 9.95937 10.2836 6.875 14.1248 6.875C17.966 6.875 21.0916 9.95937 21.0916 13.75V15.0887C20.8876 15.0363 20.678 15 20.4582 15C20.4582 14.6544 20.1751 14.375 19.8249 14.375C18.8337 14.375 17.8862 13.9075 17.2915 13.1244L16.5315 12.1244C16.2927 11.8106 15.7569 11.8106 15.5181 12.1244L14.7581 13.125C14.1634 13.9075 13.2159 14.375 12.2248 14.375H8.4247C8.07446 14.375 7.79136 14.6544 7.79136 15ZM9.05804 18.75V15.625H12.2248C13.6124 15.625 14.9386 14.9706 15.7715 13.875L16.0248 13.5413L16.2782 13.8744C16.9831 14.8019 18.0407 15.4137 19.1915 15.5794V18.75C19.1915 21.5069 16.9185 23.75 14.1248 23.75C11.3311 23.75 9.05804 21.5069 9.05804 18.75ZM14.1248 25C15.0254 25 15.8817 24.8106 16.6582 24.4744V25.3988L14.1248 28.3988L11.5914 25.3988V24.4744C12.3679 24.8106 13.2242 25 14.1248 25ZM2.09127 31.25C2.09127 28.4931 4.36434 26.25 7.15801 26.25H7.96869L9.72432 31.4475C9.78195 31.6188 9.91306 31.7575 10.0822 31.8269C10.1601 31.8594 10.2424 31.875 10.3247 31.875C10.4216 31.875 10.5192 31.8531 10.6078 31.8094L12.0677 31.0888L12.8271 32.5881L11.7054 38.125H5.89133V34.375H4.62464V38.125H2.09127V31.25ZM26.1583 31.25V38.125H23.6249V34.375H22.3582V38.125H16.5442L15.4219 32.5881L16.1813 31.0888L17.6411 31.8094C17.7304 31.8531 17.8279 31.875 17.9248 31.875C18.0072 31.875 18.0895 31.8594 18.1674 31.8275C18.3372 31.7581 18.4683 31.6194 18.5253 31.4481L20.2809 26.25H21.0916C23.8852 26.25 26.1583 28.4931 26.1583 31.25Z" fill="#8D90C4"/>
<path d="M38.8253 15V6.25C38.8253 5.90438 38.5422 5.625 38.192 5.625H35.6586C35.3084 5.625 35.0253 5.90438 35.0253 6.25V15H33.7586V10C33.7586 9.65438 33.4755 9.375 33.1253 9.375H30.5919C30.2417 9.375 29.9585 9.65438 29.9585 10V15H28.6919V11.875C28.6919 11.5294 28.4088 11.25 28.0585 11.25H25.5252C25.1749 11.25 24.8918 11.5294 24.8918 11.875V15H23.6251V16.25H40.092V15H38.8253ZM36.292 6.875H37.5587V15H36.292V6.875ZM31.2252 10.625H32.4919V15H31.2252V10.625ZM26.1585 12.5H27.4252V15H26.1585V12.5Z" fill="#8D90C4"/>
<path d="M29.5885 4.375H33.1264C33.2948 4.375 33.4557 4.30937 33.5742 4.19187L35.0264 2.75875V4.375H36.2931V1.25C36.2931 0.904375 36.01 0.625 35.6597 0.625H32.493V1.875H34.1309L32.8642 3.125H29.3263C29.1579 3.125 28.997 3.19063 28.8785 3.30813L25.0785 7.05813L25.974 7.94187L29.5885 4.375Z" fill="#8D90C4"/>
</g>
<defs>
<clipPath id="clip0">
<rect width="40.5339" height="40" fill="white" transform="translate(0.191406)"/>
</clipPath>
</defs>
</svg>
