<svg width="41" height="40" viewBox="0 0 41 40" fill="none" xmlns="http://www.w3.org/2000/svg">
<path d="M7.62257 33.0002L7.28479 26.3335L14.0404 22.6668L19.445 25.6668H20.7961V23.3335L17.7561 20.0002L16.7427 17.0002L15.7294 16.0002V14.6668L16.7427 13.6668V12.0002H15.0538V10.0002H16.4049V8.66683L17.7561 5.00016L19.7828 3.3335L22.1472 2.3335V1.3335H25.8629L26.2006 2.3335L27.5518 3.00016L30.254 5.00016L31.6052 7.66683V10.0002L32.6185 10.3335V12.0002H31.2674V13.3335L32.6185 14.6668L32.2807 16.3335L30.9296 16.6668V19.0002L29.2407 21.3335L27.214 23.0002V25.3335L30.254 26.6668L32.2807 27.6668L33.2941 29.3335V36.0002H19.1072L16.7427 37.6668L14.0404 38.6668L13.0271 38.3335L9.31149 36.0002L7.62257 33.0002Z" fill="white"/>
<path d="M29.3456 32.3127C29.4715 32.3127 29.5922 32.2633 29.6811 32.1754C29.7701 32.0875 29.8201 31.9683 29.8201 31.8439V31.374C29.8201 31.2497 29.7701 31.1305 29.6811 31.0426C29.5922 30.9547 29.4715 30.9053 29.3456 30.9053C29.2198 30.9053 29.0991 30.9547 29.0101 31.0426C28.9211 31.1305 28.8711 31.2497 28.8711 31.374V31.8439C28.8711 31.9683 28.9211 32.0875 29.0101 32.1754C29.0991 32.2633 29.2198 32.3127 29.3456 32.3127Z" fill="#8D90C4"/>
<path d="M17.6157 4.77539C16.563 6.19618 15.9598 7.89255 15.8819 9.65094H15.2955C15.1696 9.65094 15.0487 9.70032 14.9597 9.78823C14.8706 9.87614 14.8205 9.99537 14.8205 10.1197V12.1109C14.8205 12.2352 14.8706 12.3544 14.9597 12.4423C15.0487 12.5302 15.1696 12.5796 15.2955 12.5796H16.2585L16.3148 13.3859C16.0305 13.4835 15.7757 13.6501 15.5738 13.8704C15.372 14.0907 15.2295 14.3576 15.1597 14.6465C15.0281 15.1773 15.0992 15.7373 15.3595 16.2196C15.6198 16.7019 16.051 17.0727 16.5707 17.2612C16.6323 18.5146 17.0178 19.7317 17.6905 20.7966C18.3632 21.8616 19.3008 22.739 20.4141 23.3455V25.0377L19.7626 25.3125C17.8637 24.4139 16.0588 23.3337 14.3738 22.0873C14.2916 22.0264 14.1916 21.9935 14.0888 21.9935C13.986 21.9935 13.886 22.0264 13.8038 22.0873C11.7671 23.5942 9.55652 24.8573 7.21827 25.8502L7.17402 25.8689C7.08872 25.9051 7.01605 25.9652 6.96499 26.0417C6.91392 26.1183 6.88671 26.2079 6.88672 26.2995V31.1087C6.88672 33.6087 8.09688 35.8041 10.3863 37.4581C11.4368 38.2149 12.602 38.8029 13.8388 39.2003C13.9244 39.225 14.0154 39.2254 14.1012 39.2015C15.374 38.8069 16.5772 38.2204 17.6682 37.4627C18.1369 37.1374 18.5774 36.7741 18.985 36.3767H33.5519C33.6779 36.3767 33.7987 36.3273 33.8878 36.2394C33.9768 36.1515 34.0269 36.0323 34.0269 35.908V30.1545C34.0269 30.1415 34.0263 30.1284 34.0253 30.1154C33.9632 29.4083 33.7189 28.7287 33.3157 28.141C32.9125 27.5534 32.3637 27.0772 31.7215 26.7577C31.713 26.7534 31.7043 26.7499 31.6955 26.7459L27.6395 25.0375V23.326C28.7435 22.7167 29.6723 21.8402 30.3384 20.779C31.0044 19.7178 31.386 18.5068 31.447 17.2599C31.9656 17.0706 32.3956 16.6997 32.6551 16.2178C32.9145 15.7359 32.9853 15.1766 32.8539 14.6466C32.7841 14.3585 32.6423 14.0924 32.4413 13.8725C32.2403 13.6526 31.9867 13.4859 31.7035 13.3878L31.76 12.5796H32.758C32.884 12.5796 33.0048 12.5302 33.0939 12.4423C33.1829 12.3544 33.233 12.2352 33.233 12.1109V10.1197C33.233 9.99537 33.1829 9.87614 33.0939 9.78823C33.0048 9.70032 32.884 9.65094 32.758 9.65094H32.1721C32.097 7.88962 31.4931 6.19008 30.4372 4.76813C29.4337 3.41668 28.0295 2.40635 26.4188 1.87688L26.4797 1.2982C26.4865 1.23297 26.4794 1.16704 26.4588 1.10469C26.4382 1.04234 26.4045 0.98495 26.3601 0.936228C26.3156 0.887505 26.2612 0.848537 26.2005 0.821842C26.1398 0.795146 26.0741 0.781318 26.0077 0.78125H22.046C21.9795 0.78125 21.9137 0.795034 21.853 0.82171C21.7922 0.848386 21.7378 0.887359 21.6932 0.936106C21.6487 0.984853 21.615 1.04229 21.5944 1.10469C21.5738 1.16709 21.5667 1.23307 21.5735 1.29836L21.6344 1.87711C20.0225 2.40814 18.6179 3.42107 17.6157 4.77539ZM29.0262 29.6523V26.641L29.6637 26.9095V29.6523H29.0262ZM30.4575 30.5898V35.4389H19.8146C20.7768 34.1954 21.2958 32.673 21.2908 31.1084V30.5898H30.4575ZM17.1415 36.6814C16.168 37.3544 15.1013 37.8856 13.9743 38.2585C12.8937 37.888 11.8739 37.3633 10.9474 36.7012C8.88325 35.2102 7.83665 33.3285 7.83665 31.1084V26.6066C10.0459 25.6478 12.1424 24.4537 14.0887 23.0454C16.0351 24.4536 18.1315 25.6478 20.3407 26.6066V31.1084C20.3408 33.3174 19.2644 35.1925 17.1416 36.6814H17.1415ZM33.0768 30.1745V35.4389H31.4075V30.121C31.4075 29.9967 31.3575 29.8775 31.2684 29.7896C31.1793 29.7017 31.0585 29.6523 30.9325 29.6523H30.614V27.3096L31.3095 27.6025C31.8 27.8492 32.2194 28.2145 32.5284 28.6642C32.8374 29.1139 33.0261 29.6335 33.0769 30.1745H33.0768ZM28.0762 26.2409V29.6523H21.2908V26.2991C21.2906 26.1912 21.2525 26.0867 21.1831 26.0034C22.1413 26.3841 23.1681 26.5685 24.2008 26.5451C25.2335 26.5218 26.2507 26.2913 27.1903 25.8677L28.0762 26.2409ZM26.6896 25.0617C25.8496 25.4231 24.9432 25.6096 24.0268 25.6096C23.1105 25.6096 22.204 25.4231 21.3641 25.0617V23.7812C23.0803 24.4245 24.9768 24.4197 26.6896 23.7677V25.0617ZM31.9312 14.8695C31.9735 15.0399 31.9799 15.2169 31.9501 15.3898C31.9204 15.5627 31.8551 15.7277 31.7582 15.8747C31.6614 16.0217 31.5351 16.1476 31.387 16.2446C31.239 16.3416 31.0724 16.4077 30.8975 16.4388C30.7876 16.458 30.6881 16.5147 30.6164 16.5991C30.5447 16.6835 30.5053 16.7902 30.5053 16.9003V16.9113C30.5053 17.7532 30.3373 18.5869 30.0108 19.3647C29.6843 20.1425 29.2058 20.8492 28.6026 21.4445C27.9993 22.0399 27.2831 22.5121 26.4949 22.8343C25.7067 23.1564 24.862 23.3223 24.0088 23.3223C23.1557 23.3223 22.3109 23.1564 21.5227 22.8343C20.7345 22.5121 20.0184 22.0399 19.4151 21.4445C18.8118 20.8492 18.3333 20.1425 18.0068 19.3647C17.6803 18.5869 17.5123 17.7532 17.5123 16.9113V16.9009C17.5123 16.7906 17.4729 16.6839 17.401 16.5994C17.3291 16.515 17.2293 16.4582 17.1192 16.4392C16.944 16.4086 16.777 16.3428 16.6285 16.2459C16.4801 16.149 16.3533 16.0232 16.2561 15.876C16.1589 15.7289 16.0933 15.5637 16.0634 15.3905C16.0335 15.2174 16.0399 15.0401 16.0821 14.8695C16.1118 14.74 16.1728 14.6196 16.2599 14.5186C16.347 14.4175 16.4576 14.3387 16.5822 14.2891C16.6715 14.394 16.781 14.4804 16.9044 14.5432L17.7398 14.9665C17.8303 15.0123 17.9308 15.0353 18.0325 15.0336C18.1342 15.0318 18.2339 15.0054 18.3227 14.9565C18.4115 14.9076 18.4868 14.8379 18.5418 14.7535C18.5967 14.669 18.6298 14.5725 18.6379 14.4725L18.7913 12.5796H29.0115C29.0887 12.9087 29.1807 13.2352 29.2886 13.5544L29.7095 14.8002C29.742 14.8972 29.7988 14.9846 29.8746 15.0543C29.9504 15.1239 30.0429 15.1736 30.1433 15.1986C30.1935 15.2112 30.245 15.2176 30.2968 15.2176C30.453 15.2175 30.6034 15.1589 30.7174 15.0535L31.3045 14.5127C31.3699 14.452 31.4281 14.3841 31.4781 14.3105C31.5916 14.3637 31.6913 14.4417 31.7698 14.5386C31.8483 14.6354 31.9035 14.7486 31.9312 14.8695ZM17.2109 12.5796H17.8388L17.7311 13.9077L17.339 13.7091C17.3235 13.7012 17.3103 13.6895 17.3007 13.6751C17.2911 13.6607 17.2854 13.6442 17.2842 13.627L17.2109 12.5796ZM30.7317 13.6703C30.7276 13.7301 30.7006 13.7862 30.6561 13.827L30.447 14.0196L30.1897 13.258C30.1145 13.0351 30.0477 12.8083 29.9886 12.5796H30.8079L30.7317 13.6703ZM32.2834 11.6421H29.6035C29.5359 11.6072 29.4608 11.589 29.3845 11.589C29.3082 11.589 29.2331 11.6072 29.1655 11.6421H18.3471C18.3447 11.6421 18.3422 11.6421 18.3398 11.6421H15.7705V10.5884H32.2831L32.2834 11.6421ZM22.2697 2.66922C22.3791 2.64054 22.4745 2.57427 22.5388 2.48235C22.603 2.39043 22.6319 2.27889 22.6202 2.16781L22.5727 1.71875H25.4806L25.4331 2.16781C25.4214 2.27889 25.4503 2.39043 25.5145 2.48235C25.5788 2.57427 25.6742 2.64054 25.7835 2.66922C26.1465 2.76505 26.5007 2.89083 26.8424 3.04523V3.77789C26.8423 4.6285 26.5811 5.45913 26.0933 6.16045C25.6056 6.86177 24.914 7.4009 24.1098 7.70688C23.2638 7.426 22.5288 6.88982 22.0086 6.17414C21.4883 5.45846 21.2093 4.59951 21.2108 3.71875V3.04609C21.5524 2.89124 21.9066 2.76517 22.2697 2.66922ZM20.2608 3.5668V3.71875C20.2588 4.80606 20.6067 5.86593 21.2541 6.7457C21.9016 7.62547 22.8153 8.27975 23.8637 8.6143L23.9717 8.64891C24.0698 8.68038 24.1756 8.67951 24.2731 8.64641C25.3003 8.29748 26.1915 7.64089 26.8225 6.76822C27.4534 5.89555 27.7927 4.85031 27.7929 3.77828V3.56508C28.5196 4.03899 29.1564 4.63512 29.6742 5.32633C30.6093 6.58653 31.1473 8.09071 31.2211 9.65094H16.8334C16.9098 8.09321 17.4474 6.59179 18.3798 5.33258C18.8973 4.63988 19.5339 4.04222 20.2608 3.5668Z" fill="#8D90C4"/>
<path d="M23.1819 5.83105H25.0522C25.1781 5.83105 25.2989 5.78167 25.388 5.69376C25.477 5.60585 25.527 5.48662 25.527 5.3623C25.527 5.23798 25.477 5.11876 25.388 5.03085C25.2989 4.94294 25.1781 4.89355 25.0522 4.89355H23.1819C23.0559 4.89355 22.9352 4.94294 22.8461 5.03085C22.7571 5.11876 22.707 5.23798 22.707 5.3623C22.707 5.48662 22.7571 5.60585 22.8461 5.69376C22.9352 5.78167 23.0559 5.83105 23.1819 5.83105Z" fill="#8D90C4"/>
<path d="M23.1819 4.12891H25.0522C25.1781 4.12891 25.2989 4.07952 25.388 3.99161C25.477 3.9037 25.527 3.78448 25.527 3.66016C25.527 3.53584 25.477 3.41661 25.388 3.3287C25.2989 3.24079 25.1781 3.19141 25.0522 3.19141H23.1819C23.0559 3.19141 22.9352 3.24079 22.8461 3.3287C22.7571 3.41661 22.707 3.53584 22.707 3.66016C22.707 3.78448 22.7571 3.9037 22.8461 3.99161C22.9352 4.07952 23.0559 4.12891 23.1819 4.12891Z" fill="#8D90C4"/>
<path d="M16.6789 28.5372L13.2157 31.6675L11.5234 29.8567C11.4812 29.8114 11.4303 29.7748 11.3736 29.749C11.317 29.7232 11.2558 29.7086 11.1935 29.7061C11.1311 29.7036 11.0689 29.7132 11.0104 29.7345C10.9518 29.7557 10.8981 29.7881 10.8522 29.8299C10.8064 29.8716 10.7693 29.9218 10.7431 29.9777C10.7169 30.0336 10.7021 30.094 10.6996 30.1555C10.6971 30.217 10.7069 30.2784 10.7284 30.3362C10.7499 30.3939 10.7827 30.447 10.825 30.4922L12.8383 32.6465C12.9235 32.7377 13.0418 32.7918 13.1674 32.7971C13.293 32.8023 13.4156 32.7582 13.5083 32.6744L17.3206 29.2286C17.3666 29.187 17.4039 29.1369 17.4302 29.0811C17.4566 29.0253 17.4716 28.9649 17.4743 28.9034C17.4771 28.8419 17.4675 28.7805 17.4462 28.7226C17.4248 28.6648 17.3922 28.6116 17.35 28.5662C17.3079 28.5208 17.2571 28.4841 17.2006 28.458C17.1441 28.432 17.0829 28.4172 17.0205 28.4145C16.9582 28.4118 16.896 28.4213 16.8373 28.4423C16.7787 28.4633 16.7249 28.4956 16.6789 28.5372Z" fill="#8D90C4"/>
</svg>
