<svg width="41" height="40" viewBox="0 0 41 40" fill="none" xmlns="http://www.w3.org/2000/svg">
<g clip-path="url(#clip0)">
<path d="M7.62088 11.3333L6.94531 12.6667V18.6667L7.62088 24.6667L10.3231 29L14.7143 32.6667L20.1188 34L25.8612 32.6667L31.6035 28.3333L33.9679 21.3333L33.6302 11.6667C31.9412 11.4444 28.4959 10.9333 28.2256 10.6667C27.9554 10.4 26.3115 9.44444 25.5234 9L22.4833 6H19.7811L17.0788 7L14.3765 9.66667L10.3231 11.3333H7.62088Z" fill="white"/>
<path d="M11.475 21.9701C14.3834 22.8674 17.4129 23.3244 20.4601 23.3254C23.5073 23.3244 26.5367 22.8674 29.4451 21.9701C29.6756 21.8994 29.8503 21.7126 29.9035 21.4803C29.9567 21.2479 29.8802 21.0052 29.7029 20.8436C29.5255 20.682 29.2743 20.626 29.0438 20.6968C23.4564 22.4234 17.4677 22.4234 11.8804 20.6968C11.5241 20.5874 11.1454 20.7838 11.0346 21.1354C10.9238 21.487 11.1228 21.8607 11.4791 21.9701H11.475Z" fill="#8D90C4"/>
<path d="M11.572 17.9921C14.5123 18.4408 17.4832 18.665 20.4584 18.6628C23.4336 18.665 26.4046 18.4408 29.3448 17.9921C29.5856 17.9579 29.7892 17.7987 29.8778 17.5751C29.9664 17.3515 29.9264 17.0982 29.7731 16.9119C29.6197 16.7256 29.3766 16.635 29.1367 16.6748C23.385 17.5481 17.5318 17.5481 11.7801 16.6748C11.4139 16.6228 11.0734 16.8712 11.0165 17.232C10.9595 17.5927 11.2072 17.9316 11.572 17.9921Z" fill="#8D90C4"/>
<path d="M28.9496 25.3999C23.5915 27.9833 17.3254 27.9833 11.9672 25.3999C11.7476 25.2781 11.4776 25.2871 11.2668 25.4231C11.056 25.559 10.9393 25.7995 10.9641 26.0468C10.9889 26.2942 11.1511 26.5073 11.3849 26.5999C17.1106 29.36 23.8062 29.36 29.5319 26.5999C29.7657 26.5073 29.9279 26.2942 29.9527 26.0468C29.9775 25.7995 29.8609 25.559 29.65 25.4231C29.4392 25.2871 29.1692 25.2781 28.9496 25.3999Z" fill="#8D90C4"/>
<path d="M38.0231 12H34.521C34.2357 11.2037 33.4744 10.6701 32.6186 10.6666H31.5985C29.0895 10.6343 26.7289 9.48826 25.1718 7.54664C24.0182 6.147 22.2873 5.33447 20.4591 5.33447C18.6308 5.33447 16.8999 6.147 15.7463 7.54664C14.1889 9.48855 11.8277 10.6346 9.3183 10.6666H8.2982C7.4424 10.6701 6.68106 11.2037 6.3958 12H2.89367C1.40125 12 0.191406 13.1939 0.191406 14.6666V18C0.191406 21.504 3.37062 24.7286 7.22945 25.254C9.13459 30.3927 13.8315 34.0179 19.3444 34.6046C20.0851 34.6874 20.833 34.6874 21.5737 34.6046C27.0861 34.0174 31.7824 30.3923 33.6873 25.254C37.5461 24.7286 40.7254 21.504 40.7254 18V14.6666C40.7254 13.1939 39.5155 12 38.0231 12ZM8.2982 12H9.3183C12.2347 11.9679 14.9811 10.6406 16.7948 8.38664C17.6915 7.29781 19.0376 6.66564 20.4594 6.66564C21.8812 6.66564 23.2273 7.29781 24.124 8.38664C25.937 10.6403 28.6827 11.9677 31.5985 12H32.6186C32.9917 12 33.2941 12.2984 33.2941 12.6666V13.3333L31.2674 13.33H31.2539C28.0406 13.2447 25.0366 11.738 23.0728 9.22664C22.4319 8.44933 21.47 7.99862 20.4546 7.99978C19.4391 8.00095 18.4783 8.45387 17.8392 9.23264C15.8763 11.7404 12.8748 13.2444 9.66486 13.3286H9.64933L7.62263 13.3333V12.6666C7.62263 12.2984 7.92509 12 8.2982 12ZM1.54254 18V14.6666C1.54254 13.9303 2.14746 13.3333 2.89367 13.3333H6.2715V20C6.27363 21.2877 6.44277 22.5699 6.77479 23.8153C4.09077 23.1773 1.54254 20.9146 1.54254 18ZM21.4325 33.2786C20.7852 33.3506 20.1316 33.3506 19.4842 33.2786C14.3511 32.7257 10.0141 29.2741 8.37926 24.4406V24.434C7.88071 23.0073 7.62504 21.5091 7.62263 20V14.6666L9.64933 14.6633C13.274 14.5936 16.6713 12.9064 18.8877 10.0753C19.2704 9.60785 19.8464 9.33574 20.4554 9.33471C21.0644 9.33367 21.6413 9.60382 22.0257 10.07C24.2452 12.8917 27.6332 14.5785 31.2519 14.6633H31.2674L33.2941 14.6666V20C33.2922 21.5085 33.0372 23.0063 32.5395 24.4326V24.4393C30.9048 29.2738 26.5667 32.7262 21.4325 33.2786ZM39.3742 18C39.3742 20.9146 36.826 23.1773 34.142 23.8166C34.4741 22.5708 34.6432 21.2882 34.6453 20V13.3333H38.0231C38.7693 13.3333 39.3742 13.9303 39.3742 14.6666V18Z" fill="#8D90C4"/>
</g>
<defs>
<clipPath id="clip0">
<rect width="40.5339" height="40" fill="white" transform="translate(0.191406)"/>
</clipPath>
</defs>
</svg>
