<svg width="41" height="40" viewBox="0 0 41 40" fill="none" xmlns="http://www.w3.org/2000/svg">
<g clip-path="url(#clip0)">
<path d="M11.3274 18.3333L10.3276 20.3333L20.3259 31L22.6589 29.3333L23.992 37L25.9917 34.6667L28.9912 29.6667L29.6577 23L34.9902 17.3333L38.6563 9.66667L39.9894 1L30.6576 2.33333L23.992 6L17.6597 11.3333L13.3271 12L7.32804 14L4.32853 17L11.3274 18.3333Z" fill="white"/>
<path d="M1.99557 38.6667L5.32837 29.6667L8.32788 27.6667L11.3274 28.6667L13.3271 31L12.9938 34.3333L9.99427 36L4.66181 38.6667H1.99557Z" fill="white"/>
<path d="M20.7627 31.7767C20.5494 31.7767 20.3361 31.6951 20.1728 31.5334L9.46285 20.8217C9.14956 20.5084 9.13623 20.0067 9.42952 19.6767L17.4565 10.6834C23.0673 4.11841 32.2041 -0.129921 40.1712 0.00507906C40.6161 0.0150791 40.9744 0.373412 40.9844 0.818412C41.1694 8.79175 36.8734 17.9251 30.2928 23.5484L21.3159 31.5651C21.1593 31.7067 20.9593 31.7767 20.7627 31.7767ZM11.1976 20.2001L20.7943 29.7984L29.198 22.2951C35.207 17.1584 39.198 8.97175 39.3213 1.67008C32.0208 1.79175 23.8372 5.78341 18.7113 11.7801L11.1976 20.2001Z" fill="#8D90C4"/>
<path d="M23.9524 37.8769C23.8724 37.8769 23.7907 37.8652 23.7141 37.8402C23.4141 37.7402 23.1675 37.5102 23.1242 37.1969L21.981 29.2185C21.916 28.7635 22.2326 28.3419 22.6876 28.2752C23.1425 28.2035 23.5641 28.5252 23.6308 28.9819L24.5239 35.2152C27.4435 31.7235 29.0665 27.2969 29.0665 22.7835C29.0665 22.3235 29.4398 21.9502 29.8997 21.9502C30.3597 21.9502 30.7329 22.3235 30.7329 22.7835C30.7329 28.3052 28.4966 33.7102 24.5973 37.6085C24.4306 37.7752 24.1873 37.8769 23.9524 37.8769Z" fill="#8D90C4"/>
<path d="M11.8953 19.02C11.8569 19.02 11.8169 19.0183 11.7769 19.0116L3.79991 17.8683C3.48662 17.8233 3.225 17.605 3.12668 17.3033C3.02837 17.0033 3.10835 16.6716 3.33332 16.45C7.28767 12.495 12.6901 10.2583 18.2109 10.2583C18.6708 10.2583 19.0441 10.6316 19.0441 11.0916C19.0441 11.5516 18.6708 11.925 18.2109 11.925C13.6766 11.925 9.22736 13.5633 5.77292 16.4666L12.0136 17.3616C12.4685 17.4283 12.7851 17.8483 12.7201 18.305C12.6585 18.72 12.3019 19.02 11.8953 19.02Z" fill="#8D90C4"/>
<path d="M29.5465 15.6102C28.4783 15.6102 27.4118 15.2035 26.6003 14.3919C24.9772 12.7669 24.9772 10.1235 26.6003 8.49854C28.225 6.87354 30.8679 6.87354 32.4926 8.49854C34.1157 10.1235 34.1157 12.7669 32.4926 14.3919C31.6794 15.2052 30.6129 15.6102 29.5465 15.6102ZM29.5465 8.94687C28.9066 8.94687 28.265 9.1902 27.7784 9.67687C26.8052 10.6519 26.8052 12.2385 27.7784 13.2135C28.7532 14.1869 30.3397 14.1852 31.3145 13.2135C32.2877 12.2385 32.2877 10.6519 31.3145 9.67687C30.8262 9.19187 30.1863 8.94687 29.5465 8.94687ZM31.9027 13.8035H31.9194H31.9027Z" fill="#8D90C4"/>
<path d="M1.82928 40.0001C1.61099 40.0001 1.39935 39.9151 1.23938 39.7568C1.02275 39.5401 0.942762 39.2218 1.03108 38.9285C1.30437 38.0168 3.75231 29.9601 5.53535 28.1768C7.54336 26.1685 10.8112 26.1668 12.8192 28.1768C14.8272 30.1851 14.8272 33.4535 12.8192 35.4618C11.0361 37.2451 2.98076 39.6935 2.06925 39.9668C1.98926 39.9885 1.90927 40.0001 1.82928 40.0001ZM9.17809 28.3351C8.2849 28.3351 7.39338 28.6751 6.71349 29.3535C5.75198 30.3168 4.15224 34.6185 3.09575 37.9001C6.37521 36.8435 10.6778 35.2435 11.6394 34.2818C12.9975 32.9235 12.9975 30.7118 11.6394 29.3535C10.9611 28.6751 10.0696 28.3351 9.17809 28.3351Z" fill="#8D90C4"/>
</g>
<defs>
<clipPath id="clip0">
<rect width="39.9935" height="40" fill="white" transform="translate(0.996094)"/>
</clipPath>
</defs>
</svg>
