<svg width="41" height="40" viewBox="0 0 41 40" fill="none" xmlns="http://www.w3.org/2000/svg">
<path d="M5.99561 36.3337L2.99609 36.667V39.667H38.9902V36.667H35.9907V0.666992H5.99561V36.3337Z" fill="white"/>
<path d="M39.1466 35.9639H36.6772V0.60241C36.6772 0.240964 36.4362 0 36.0748 0H5.95926C5.59787 0 5.35695 0.240964 5.35695 0.60241V35.9639H2.88747C2.52608 35.9639 2.28516 36.2048 2.28516 36.5663V39.3976C2.28516 39.759 2.52608 40 2.88747 40H39.0864C39.4478 40 39.6887 39.759 39.6887 39.3976V36.5663C39.7489 36.2651 39.4478 35.9639 39.1466 35.9639ZM6.56157 1.20482H35.4725V35.9639H33.9065V3.31325C33.9065 2.95181 33.6656 2.71084 33.3042 2.71084H8.72989C8.3685 2.71084 8.12758 2.95181 8.12758 3.31325V35.9639H6.56157V1.20482ZM21.6194 24.8795V15H32.7019V24.8795H21.6194ZM32.7019 26.0843V35.9639H21.6194V26.0843H32.7019ZM21.6194 13.7952V3.91566H32.7019V13.7952H21.6194ZM9.3322 24.8795V15H20.4147V24.8795H9.3322ZM20.4147 26.0843V35.9639H9.3322V26.0843H20.4147ZM9.3322 13.7952V3.91566H20.4147V13.7952H9.3322ZM3.48978 38.7952V37.1687H8.72989H33.3042H38.5443V38.7952H3.48978Z" fill="#8D90C4"/>
</svg>
