<svg width="41" height="40" viewBox="0 0 41 40" fill="none" xmlns="http://www.w3.org/2000/svg">
<g clip-path="url(#clip0)">
<path d="M5.66016 39.3337V1.00033V0.666992H31.3226L36.3218 5.66699V39.3337H5.66016Z" fill="white"/>
<path d="M28.3905 38.8259H6.16231V9.86299C6.16231 9.53869 5.89946 9.27588 5.5753 9.27588C5.25113 9.27588 4.98828 9.53869 4.98828 9.86299V39.0216C4.98828 39.5612 5.42719 40.0001 5.96664 40.0001H28.3905C28.7147 40.0001 28.9774 39.7373 28.9775 39.413C28.9775 39.0887 28.7147 38.8259 28.3905 38.8259Z" fill="#8D90C4"/>
<path d="M36.834 5.30867L31.8445 0.177813C31.7339 0.0641406 31.5822 0 31.4237 0H5.96664C5.42719 0 4.98836 0.439062 4.98828 0.978594V5.55773C4.98828 5.88203 5.25113 6.14484 5.5753 6.14484C5.89946 6.14484 6.16231 5.88203 6.16231 5.55773V1.1743H31.1757L35.8262 5.95648V38.8258H32.4994C32.1753 38.8258 31.9124 39.0886 31.9124 39.4129C31.9124 39.7372 32.1753 40 32.4994 40H36.0218C36.5613 40 37.0002 39.5611 37.0002 39.0216V5.71797C37.0002 5.56508 36.9406 5.41828 36.834 5.30867Z" fill="#8D90C4"/>
<path d="M36.8339 5.30863L31.8444 0.177773C31.6778 0.00652334 31.4241 -0.0467579 31.2028 0.0431639C30.9815 0.133086 30.8367 0.348164 30.8367 0.587148V5.71793C30.8367 6.04223 31.0995 6.30504 31.4237 6.30504H36.4132C36.6492 6.30504 36.8622 6.16379 36.9539 5.94637C37.0457 5.72902 36.9984 5.47769 36.8339 5.30863ZM32.0107 5.13082V2.0327L35.0234 5.13082H32.0107Z" fill="#8D90C4"/>
<path d="M23.711 3.11719H9.56747C9.02795 3.11719 8.58911 3.55617 8.58911 4.0957V7.34047C8.58911 7.88008 9.02802 8.31898 9.56747 8.31898H23.711C24.2504 8.31898 24.6893 7.88 24.6893 7.34055V4.09562C24.6893 3.55602 24.2504 3.11719 23.711 3.11719ZM23.5153 7.14469H9.76314V4.29133H23.5153V7.14469Z" fill="#8D90C4"/>
<path d="M14.4537 11.3911C14.1957 11.1951 13.8274 11.2451 13.6312 11.5033L11.0376 14.9164L10.2587 14.2347C10.0147 14.0211 9.64395 14.0459 9.43039 14.29C9.21691 14.534 9.24167 14.9049 9.48561 15.1184L10.7378 16.2143C10.8453 16.3082 10.9829 16.3595 11.1243 16.3595C11.144 16.3595 11.1638 16.3585 11.1836 16.3566C11.3455 16.3401 11.4933 16.2573 11.5918 16.1277L14.5659 12.2138C14.762 11.9557 14.7118 11.5873 14.4537 11.3911Z" fill="#8D90C4"/>
<path d="M32.1181 11.2715H17.3335C17.0094 11.2715 16.7465 11.5343 16.7465 11.8586C16.7465 12.1829 17.0094 12.4457 17.3335 12.4457H32.1181C32.4423 12.4457 32.7051 12.1829 32.7051 11.8586C32.7051 11.5343 32.4423 11.2715 32.1181 11.2715Z" fill="#8D90C4"/>
<path d="M26.9324 13.2285H17.3335C17.0094 13.2285 16.7465 13.4913 16.7465 13.8156C16.7465 14.1399 17.0094 14.4027 17.3335 14.4027H26.9324C27.2565 14.4027 27.5194 14.1399 27.5194 13.8156C27.5194 13.4913 27.2565 13.2285 26.9324 13.2285Z" fill="#8D90C4"/>
<path d="M29.1238 15.1855H17.3335C17.0094 15.1855 16.7465 15.4484 16.7465 15.7727C16.7465 16.097 17.0094 16.3598 17.3335 16.3598H29.1238C29.448 16.3598 29.7108 16.097 29.7108 15.7727C29.7108 15.4484 29.448 15.1855 29.1238 15.1855Z" fill="#8D90C4"/>
<path d="M14.4537 19.3765C14.1957 19.1804 13.8274 19.2305 13.6312 19.4887L11.0376 22.9018L10.2587 22.2201C10.0147 22.0066 9.64395 22.0314 9.43039 22.2753C9.21691 22.5194 9.24167 22.8903 9.48561 23.1038L10.7378 24.1996C10.8453 24.2936 10.9829 24.3449 11.1243 24.3449C11.144 24.3449 11.1638 24.3439 11.1836 24.342C11.3455 24.3255 11.4933 24.2427 11.5918 24.1131L14.5659 20.1992C14.762 19.941 14.7118 19.5728 14.4537 19.3765Z" fill="#8D90C4"/>
<path d="M32.1181 19.2563H17.3335C17.0094 19.2563 16.7465 19.5192 16.7465 19.8435C16.7465 20.1678 17.0094 20.4306 17.3335 20.4306H32.1181C32.4423 20.4306 32.7051 20.1678 32.7051 19.8435C32.7051 19.5192 32.4423 19.2563 32.1181 19.2563Z" fill="#8D90C4"/>
<path d="M26.9324 21.2134H17.3335C17.0094 21.2134 16.7465 21.4762 16.7465 21.8005C16.7465 22.1248 17.0094 22.3876 17.3335 22.3876H26.9324C27.2565 22.3876 27.5194 22.1248 27.5194 21.8005C27.5194 21.4762 27.2565 21.2134 26.9324 21.2134Z" fill="#8D90C4"/>
<path d="M29.1238 23.1704H17.3335C17.0094 23.1704 16.7465 23.4332 16.7465 23.7575C16.7465 24.0818 17.0094 24.3446 17.3335 24.3446H29.1238C29.448 24.3446 29.7108 24.0818 29.7108 23.7575C29.7108 23.4332 29.448 23.1704 29.1238 23.1704Z" fill="#8D90C4"/>
<path d="M32.1181 27.2412H17.3335C17.0094 27.2412 16.7465 27.504 16.7465 27.8283C16.7465 28.1526 17.0094 28.4154 17.3335 28.4154H32.1181C32.4423 28.4154 32.705 28.1526 32.7051 27.8283C32.7051 27.504 32.4423 27.2412 32.1181 27.2412Z" fill="#8D90C4"/>
<path d="M26.9324 29.1982H17.3335C17.0094 29.1982 16.7465 29.4611 16.7465 29.7853C16.7465 30.1096 17.0094 30.3725 17.3335 30.3725H26.9324C27.2565 30.3725 27.5194 30.1096 27.5194 29.7853C27.5194 29.4611 27.2565 29.1982 26.9324 29.1982Z" fill="#8D90C4"/>
<path d="M29.1238 31.1548H17.3335C17.0094 31.1548 16.7465 31.4176 16.7465 31.7419C16.7465 32.0662 17.0094 32.329 17.3335 32.329H29.1238C29.448 32.329 29.7108 32.0662 29.7108 31.7419C29.7108 31.4176 29.448 31.1548 29.1238 31.1548Z" fill="#8D90C4"/>
<path d="M13.3942 27.2412H10.2635C9.72399 27.2412 9.28516 27.6802 9.28516 28.2197V31.3508C9.28516 31.8904 9.72407 32.3293 10.2635 32.3293H13.3942C13.9337 32.3293 14.3725 31.8904 14.3725 31.3509V28.2197C14.3725 27.6801 13.9336 27.2412 13.3942 27.2412ZM13.1986 31.1552H10.4593V28.4154H13.1986V31.1552Z" fill="#8D90C4"/>
</g>
<defs>
<clipPath id="clip0">
<rect width="39.9935" height="40" fill="white" transform="translate(0.996094)"/>
</clipPath>
</defs>
</svg>
