<svg width="37" height="37" viewBox="0 0 37 37" fill="none" xmlns="http://www.w3.org/2000/svg">
<g clip-path="url(#clip0)">
<path d="M17.4424 0.414062H1.9288C1.12727 0.414062 0.480865 1.06046 0.480865 1.862V18.8753C0.480865 19.6768 1.12727 20.3232 1.9288 20.3232L6.06577 22.2107L6.11748 33.4839L5.52279 35.1904C5.52279 35.7334 5.96235 36.173 6.50532 36.173H12.8401C13.383 36.173 13.8226 35.7334 13.8226 35.1904L13.2538 33.5874L13.3055 22.34L17.4424 20.3491C18.244 20.3491 18.8904 19.7027 18.8904 18.9011V1.862C18.8904 1.06046 18.244 0.414062 17.4424 0.414062Z" fill="white"/>
<path d="M28.2779 23.2441V3.49009C28.2779 2.68856 27.9417 1.93873 27.4246 1.42161C26.8816 0.904488 26.1577 0.568359 25.3561 0.568359C23.7272 0.568359 22.4344 1.88702 22.4344 3.51595V23.27C20.0298 24.3301 18.375 26.7605 18.375 29.553C18.375 33.4055 21.4777 36.5083 25.3303 36.5083C29.1828 36.5083 32.2856 33.4055 32.2856 29.553C32.2856 26.7605 30.6566 24.3301 28.2779 23.2441Z" fill="white"/>
<path d="M17.5719 20.9181C18.5803 20.8663 19.3818 20.0131 19.3818 18.9788V1.96557C19.3818 0.905473 18.5027 0.0263672 17.4426 0.0263672H1.92897C0.89473 0.0522232 0.015625 0.905473 0.015625 1.96557V18.9788C0.015625 20.0131 0.817162 20.8405 1.82555 20.9181L5.54882 22.5987L5.60053 33.4841L5.0317 35.1906V35.2682C5.0317 36.0955 5.70395 36.7678 6.53135 36.7678H12.8661C13.6935 36.7678 14.3657 36.0955 14.3657 35.2682V35.1647L13.7969 33.5617L13.8486 22.7021L17.5719 20.9181ZM12.8661 35.7336H6.53135C6.29864 35.7336 6.11765 35.5526 6.06594 35.3457L6.63477 33.6651L6.58306 22.3143C6.58306 22.0557 6.37621 21.8489 6.14351 21.7972L2.05825 19.9355H1.95483C1.43771 19.9355 0.998155 19.496 0.998155 18.9788V1.96557C0.998155 1.44845 1.43771 1.0089 1.95483 1.0089H17.4685C17.9856 1.0089 18.4251 1.44845 18.4251 1.96557V18.9788C18.4251 19.496 17.9856 19.9355 17.4685 19.9355H17.3392L13.2281 21.9006C12.9695 21.9523 12.7885 22.1591 12.7885 22.4177L12.7368 33.7685L13.3056 35.3716C13.3056 35.5526 13.0988 35.7336 12.8661 35.7336Z" fill="#8D90C3"/>
<path d="M16.6386 14.4535V4.26623C16.6386 3.41298 15.9405 2.74072 15.1131 2.74072H4.27941C3.42616 2.74072 2.75391 3.43884 2.75391 4.26623V14.4535C2.75391 15.3068 3.45202 15.979 4.27941 15.979H15.1131C15.9663 15.979 16.6386 15.3068 16.6386 14.4535ZM3.78815 14.4535V4.26623C3.78815 3.98181 4.02085 3.77496 4.27941 3.77496H15.1131C15.3975 3.77496 15.6044 4.00767 15.6044 4.26623V14.4535C15.6044 14.7379 15.3717 14.9448 15.1131 14.9448H4.27941C4.02085 14.9448 3.78815 14.7379 3.78815 14.4535Z" fill="#8D90C3"/>
<path d="M5.88602 17.7632H3.40384C3.11942 17.7632 2.88672 17.9959 2.88672 18.2803C2.88672 18.5647 3.11942 18.7974 3.40384 18.7974H5.88602C6.17044 18.7974 6.40314 18.5647 6.40314 18.2803C6.40314 17.9959 6.17044 17.7632 5.88602 17.7632Z" fill="#8D90C3"/>
<path d="M10.9008 17.7632H8.41858C8.13416 17.7632 7.90146 17.9959 7.90146 18.2803C7.90146 18.5647 8.13416 18.7974 8.41858 18.7974H10.9008C11.1852 18.7974 11.4179 18.5647 11.4179 18.2803C11.4179 17.9959 11.211 17.7632 10.9008 17.7632Z" fill="#8D90C3"/>
<path d="M15.9446 17.7632H13.4624C13.178 17.7632 12.9453 17.9959 12.9453 18.2803C12.9453 18.5647 13.178 18.7974 13.4624 18.7974H15.9446C16.229 18.7974 16.4617 18.5647 16.4617 18.2803C16.4617 17.9959 16.229 17.7632 15.9446 17.7632Z" fill="#8D90C3"/>
<path d="M28.7926 22.8826V3.46473C28.7926 2.53391 28.4306 1.68067 27.7842 1.03426C27.1378 0.387864 26.2587 0.0258789 25.3537 0.0258789C23.4404 0.0258789 21.9149 1.57724 21.9149 3.46473V22.8826C19.4327 24.1754 17.8555 26.7352 17.8555 29.5276C17.8555 33.6387 21.2168 37 25.3279 37C29.439 37 32.8003 33.6387 32.8003 29.5276C32.8003 26.7352 31.2489 24.1754 28.7926 22.8826ZM25.3279 35.9658C21.7856 35.9658 18.8897 33.0699 18.8897 29.5276C18.8897 27.0196 20.3635 24.7443 22.613 23.6842C22.613 23.6842 22.6388 23.6842 22.6388 23.6583C22.6647 23.6583 22.6647 23.6324 22.6905 23.6324C22.7164 23.6324 22.7164 23.6066 22.7164 23.6066L22.7423 23.5807L22.7681 23.5549C22.7681 23.529 22.794 23.529 22.794 23.5032C22.794 23.4773 22.8198 23.4773 22.8198 23.4515C22.8198 23.4256 22.8457 23.4256 22.8457 23.3997C22.8457 23.3739 22.8457 23.3739 22.8715 23.348C22.8715 23.3222 22.8715 23.3222 22.8715 23.2963C22.8715 23.2705 22.8715 23.2705 22.8715 23.2446V23.2188V3.46473C22.8715 2.12022 23.9575 1.03426 25.302 1.03426C25.9484 1.03426 26.5431 1.29282 27.0085 1.73238C27.4739 2.19779 27.7066 2.79248 27.7066 3.43888V23.1929V23.2188C27.7066 23.2446 27.7066 23.2446 27.7066 23.2705C27.7066 23.2963 27.7066 23.2963 27.7066 23.3222C27.7066 23.348 27.7066 23.348 27.7325 23.3739C27.7325 23.3997 27.7583 23.3997 27.7583 23.4256C27.7583 23.4515 27.7842 23.4515 27.7842 23.4773C27.7842 23.5032 27.81 23.5032 27.81 23.529C27.81 23.5549 27.8359 23.5549 27.8359 23.5549L27.8618 23.5807L27.8876 23.6066C27.9135 23.6066 27.9135 23.6324 27.9393 23.6324C27.9393 23.6324 27.9652 23.6324 27.9652 23.6583C30.2147 24.7184 31.6884 26.9937 31.6884 29.5018C31.766 33.0699 28.896 35.9658 25.3279 35.9658Z" fill="#8D90C3"/>
<path d="M25.8461 24.511V3.77445C25.8461 3.49003 25.6134 3.25732 25.3289 3.25732C25.0445 3.25732 24.8118 3.49003 24.8118 3.77445V24.511C22.5106 24.7696 20.7266 26.7088 20.7266 29.0617C20.7266 31.5956 22.795 33.664 25.3289 33.664C27.8628 33.664 29.9313 31.5956 29.9313 29.0617C29.9313 26.7088 28.1472 24.7696 25.8461 24.511ZM25.3289 32.6298C23.3639 32.6298 21.7608 31.0267 21.7608 29.0617C21.7608 27.0966 23.3639 25.4935 25.3289 25.4935C27.294 25.4935 28.8971 27.0966 28.8971 29.0617C28.8971 31.0267 27.294 32.6298 25.3289 32.6298Z" fill="#8D90C3"/>
<path d="M34.0925 0.129256C33.8857 -0.0517363 33.5754 -0.0517363 33.3944 0.155112C33.2134 0.36196 33.2134 0.672233 33.4202 0.853225C34.7389 2.06846 35.4887 3.77496 35.4887 5.55903C35.4887 7.23967 34.8423 8.81689 33.6788 10.0063C33.4978 10.2131 33.4978 10.5234 33.6788 10.7044C33.7822 10.8078 33.8857 10.8337 34.0149 10.8337C34.1442 10.8337 34.2735 10.7819 34.3769 10.6785C35.7214 9.30815 36.4454 7.47237 36.4454 5.53317C36.4713 3.49054 35.5922 1.52548 34.0925 0.129256Z" fill="#8D90C3"/>
<path d="M32.6736 1.70641C32.4926 1.49956 32.1823 1.49956 31.9754 1.70641C31.7686 1.8874 31.7686 2.19767 31.9754 2.40452C32.777 3.23191 33.2165 4.31787 33.2165 5.45553C33.2165 6.51563 32.8287 7.54987 32.1306 8.37726C31.9496 8.58411 31.9754 8.89438 32.1823 9.07538C32.2857 9.15295 32.3891 9.20466 32.4926 9.20466C32.6218 9.20466 32.777 9.15295 32.8546 9.02367C33.7078 8.04114 34.1991 6.77419 34.1991 5.45553C34.1732 4.03345 33.6561 2.71479 32.6736 1.70641Z" fill="#8D90C3"/>
<path d="M30.9644 5.42969C30.9644 5.89509 30.8093 6.3605 30.5507 6.72249C30.3956 6.92934 30.4473 7.23961 30.6541 7.4206C30.7317 7.47231 30.8351 7.52402 30.9385 7.52402C31.0937 7.52402 31.2488 7.44646 31.3264 7.31718C31.7401 6.7742 31.9469 6.1278 31.9469 5.42969C31.9469 4.654 31.6625 3.90418 31.1712 3.33535C30.9903 3.1285 30.68 3.10264 30.4731 3.28363C30.2663 3.46463 30.2404 3.7749 30.4214 3.98175C30.7834 4.39544 30.9644 4.91256 30.9644 5.42969Z" fill="#8D90C3"/>
</g>
<defs>
<clipPath id="clip0">
<rect width="36.457" height="37" fill="white" transform="translate(0.015625)"/>
</clipPath>
</defs>
</svg>
